<?xml version="1.0" encoding="utf-8"?>
<!-- Generator: Adobe Illustrator 19.2.1, SVG Export Plug-In . SVG Version: 6.00 Build 0)  -->
<!DOCTYPE svg PUBLIC "-//W3C//DTD SVG 1.1//EN" "http://www.w3.org/Graphics/SVG/1.1/DTD/svg11.dtd">
<svg version="1.1" xmlns="http://www.w3.org/2000/svg" xmlns:xlink="http://www.w3.org/1999/xlink" x="0px" y="0px"
	 viewBox="0 0 391 147" style="enable-background:new 0 0 391 147;" xml:space="preserve">
<g id="Слой_1">
</g>
<g id="Layer_2">
	<rect x="0" style="fill:#FFFFFF;" width="391" height="147"/>
	<g id="Ukrainisch_1_">
		<g>
			<g>
				<path style="fill:#C72030;" d="M31.7,128.5v-6.9h1.4c2.6,0,3.8,0.9,3.8,3.3c0,2.5-1.4,3.6-3.9,3.6H31.7z M32.6,122.4v5.4H33
					c1.9,0,3-0.8,3-2.9c0-1.9-1-2.5-2.9-2.5H32.6z"/>
				<path style="fill:#C72030;" d="M42.6,122.4h-2.9v2.3h2.6v0.7h-2.6v2.4h3.1l-0.1,0.7h-4v-6.9h3.8L42.6,122.4z"/>
				<path style="fill:#C72030;" d="M49.6,125.7c0,2-0.9,3-2.6,3c-1.7,0-2.5-0.9-2.5-3v-4.1h0.9v4.1c0,1.6,0.6,2.2,1.7,2.2
					c1.1,0,1.7-0.6,1.7-2.2v-4.1h0.8C49.6,121.6,49.6,125.7,49.6,125.7z"/>
				<path style="fill:#C72030;" d="M56.1,122.4H54v6.2h-0.9v-6.2H51v-0.7h5.2L56.1,122.4z"/>
				<path style="fill:#C72030;" d="M60.7,122.8c-0.1-0.1-0.6-0.5-1.3-0.5c-0.8,0-1.2,0.4-1.2,0.8c0,0.5,0.2,0.8,1.1,1.4l0.6,0.4
					c0.8,0.5,1.4,1.1,1.4,2c0,1-0.8,1.8-2.2,1.8c-1.1,0-1.6-0.4-1.8-0.6l0.3-0.8c0.2,0.2,0.8,0.6,1.5,0.6c0.9,0,1.4-0.4,1.4-0.9
					c0-0.6-0.3-0.9-1.1-1.4l-0.6-0.4c-0.9-0.6-1.3-1.1-1.3-2s0.8-1.6,2-1.6c1,0,1.5,0.4,1.6,0.5L60.7,122.8z"/>
				<path style="fill:#C72030;" d="M65.9,121.5c1.1,0,1.6,0.5,1.8,0.6l-0.3,0.7c-0.2-0.1-0.6-0.5-1.4-0.5c-1.2,0-2.3,0.8-2.3,2.8
					c0,2.1,0.8,2.9,2.2,2.9c0.9,0,1.3-0.4,1.5-0.5l0.3,0.7c-0.2,0.2-0.8,0.6-1.9,0.6c-1.8,0-3-1.1-3-3.6
					C62.6,122.5,64.3,121.5,65.9,121.5z"/>
				<path style="fill:#C72030;" d="M74.4,128.5h-0.9v-3.1h-3.4v3.1h-0.9v-6.9h0.9v3.1h3.4v-3.1h0.9V128.5z"/>
				<path style="fill:#C72030;" d="M80.3,122.4h-2.9v2.3h2.7v0.7h-2.7v2.4h3.2l-0.1,0.7h-4v-6.9h3.8V122.4z"/>
				<path style="fill:#C72030;" d="M89,122.2l-3.4,5.6l0,0h3.7l-0.1,0.7h-4.8V128l3.5-5.6l0,0h-3.3v-0.7H89V122.2z"/>
			</g>
			<g>
				<path style="fill:#C72030;" d="M95.9,125.7c0,2-0.9,3-2.6,3s-2.5-0.9-2.5-3v-4.1h0.9v4.1c0,1.6,0.6,2.2,1.7,2.2s1.7-0.6,1.7-2.2
					v-4.1h0.8V125.7z"/>
				<path style="fill:#C72030;" d="M101,122.8c-0.1-0.1-0.6-0.5-1.3-0.5c-0.8,0-1.2,0.4-1.2,0.8c0,0.5,0.2,0.8,1.1,1.4l0.6,0.4
					c0.8,0.5,1.4,1.1,1.4,2c0,1-0.8,1.8-2.2,1.8c-1.1,0-1.6-0.4-1.9-0.6l0.3-0.8c0.2,0.2,0.8,0.6,1.5,0.6c0.9,0,1.4-0.4,1.4-0.9
					c0-0.6-0.3-0.9-1.1-1.4l-0.6-0.4c-0.9-0.6-1.3-1.1-1.3-2s0.8-1.6,2-1.6c1,0,1.5,0.4,1.6,0.5L101,122.8z"/>
			</g>
			<g>
				<path style="fill:#C72030;" d="M107.4,128.5l-0.8-2.2h-2.5l-0.8,2.2h-0.9l2.6-6.9h0.7l2.6,6.9H107.4z M105.4,122.8L105.4,122.8
					l-1,2.9h2L105.4,122.8z"/>
				<path style="fill:#C72030;" d="M116.2,128.5h-0.8v-4.9l0,0l-2,4.9h-0.7l-2-4.9l0,0v4.9h-0.8v-6.9h0.9l2.3,5.7l0,0l2.3-5.7h0.9
					v6.9H116.2z"/>
				<path style="fill:#C72030;" d="M124.8,128.5H124v-4.9l0,0l-2,4.9h-0.8l-2-4.9l0,0v4.9h-0.8v-6.9h1l2.3,5.7l0,0l2.3-5.7h0.9
					L124.8,128.5L124.8,128.5z"/>
			</g>
			<g>
				<path style="fill:#C72030;" d="M130.7,122.4h-2.9v2.3h2.7v0.7h-2.7v2.4h3.2l-0.1,0.7h-4v-6.9h3.8V122.4z"/>
			</g>
			<g>
				<path style="fill:#C72030;" d="M137.9,128.5H137l-3.5-5.3l0,0v5.3h-0.9v-6.9h0.8l3.5,5.3l0,0v-5.3h0.9L137.9,128.5L137.9,128.5z
					"/>
				<path style="fill:#C72030;" d="M144.1,128.5l-0.8-2.2h-2.5l-0.8,2.2h-0.9l2.6-6.9h0.7l2.6,6.9H144.1z M142.1,122.8L142.1,122.8
					l-1,2.9h2L142.1,122.8z"/>
				<path style="fill:#C72030;" d="M150,128.5l-1.6-2.8c-0.2,0-0.3,0-0.5,0h-0.5v2.8h-0.9v-6.9h1.5c1.9,0,2.7,0.7,2.7,1.9
					c0,0.9-0.4,1.6-1.4,2l1.8,3H150z M147.9,122.4h-0.6v2.7h0.5c1.3,0,1.8-0.5,1.8-1.4C149.7,122.8,149.2,122.4,147.9,122.4z"/>
				<path style="fill:#C72030;" d="M155.4,125L155.4,125c0.8,0.2,1.4,0.7,1.4,1.7c0,1.1-0.8,1.9-2.7,1.9h-1.6v-6.9h1.5
					c1.9,0,2.6,0.7,2.6,1.8C156.7,124.4,156.1,124.8,155.4,125z M154.1,122.4h-0.6v2.3h0.6c1.1,0,1.7-0.5,1.7-1.3
					C155.8,122.8,155.3,122.4,154.1,122.4z M154.2,125.4h-0.7v2.4h0.7c1.3,0,1.8-0.4,1.8-1.2C156,125.8,155.3,125.4,154.2,125.4z"/>
			</g>
			<g>
				<path style="fill:#C72030;" d="M162.5,122.4h-2.9v2.3h2.6v0.7h-2.6v2.4h3.2l-0.1,0.7h-4v-6.9h3.8V122.4z"/>
			</g>
			<g>
				<path style="fill:#C72030;" d="M164.8,122.3H164v-0.6h2.5v0.6h-0.8v5.6h0.9v0.6H164v-0.6h0.9L164.8,122.3L164.8,122.3z"/>
			</g>
			<g>
				<path style="fill:#C72030;" d="M172.7,122.4h-2.1v6.2h-0.9v-6.2h-2.1v-0.7h5.2L172.7,122.4z"/>
			</g>
		</g>
		<g>
			<path style="fill:#414042;" d="M45.5,113.4h-6v-0.8c0.2,0,0.4,0,0.6,0c0.2,0,0.4-0.1,0.5-0.1c0.2-0.1,0.4-0.2,0.5-0.4
				c0.1-0.2,0.2-0.4,0.2-0.7v-3.9h-5.5v3.8c0,0.3,0.1,0.5,0.2,0.7c0.1,0.2,0.3,0.3,0.5,0.4s0.4,0.1,0.6,0.2c0.2,0,0.4,0.1,0.6,0.1
				v0.8h-6v-0.8c0.2,0,0.4,0,0.6,0c0.2,0,0.4-0.1,0.5-0.1c0.2-0.1,0.4-0.2,0.5-0.4c0.1-0.2,0.2-0.4,0.2-0.7v-8
				c0-0.3-0.1-0.5-0.2-0.7c-0.1-0.2-0.3-0.3-0.5-0.4s-0.4-0.2-0.6-0.2c-0.2,0-0.4-0.1-0.6-0.1v-0.8h6v0.8c-0.2,0-0.5,0-0.6,0.1
				c-0.2,0-0.3,0.1-0.5,0.1c-0.2,0.1-0.4,0.2-0.5,0.4c-0.1,0.2-0.2,0.4-0.2,0.7v3.2h5.5v-3c0-0.3-0.1-0.5-0.2-0.7
				c-0.1-0.2-0.3-0.3-0.5-0.4s-0.4-0.2-0.6-0.2c-0.2,0-0.4-0.1-0.6-0.1v-0.8h6v0.8c-0.2,0-0.4,0-0.6,0.1c-0.2,0-0.3,0.1-0.5,0.1
				c-0.2,0.1-0.4,0.2-0.5,0.4c-0.1,0.2-0.2,0.4-0.2,0.7v8c0,0.3,0.1,0.5,0.1,0.7c0.1,0.2,0.3,0.3,0.5,0.4s0.4,0.1,0.6,0.2
				c0.2,0,0.4,0.1,0.6,0.1v0.5H45.5z"/>
			<path style="fill:#414042;" d="M53.2,113.4h-5.9v-0.8c0.2,0,0.4,0,0.6,0c0.2,0,0.4-0.1,0.5-0.1c0.2-0.1,0.4-0.2,0.5-0.4
				c0.1-0.2,0.2-0.4,0.2-0.7v-7.6c0-0.3-0.1-0.5-0.2-0.7c-0.1-0.2-0.3-0.4-0.5-0.6c-0.2-0.1-0.4-0.2-0.7-0.3
				c-0.3-0.1-0.6-0.1-0.8-0.1v-0.8l4.3-0.3l0.2,0.2v10c0,0.3,0.1,0.5,0.2,0.7c0.1,0.2,0.3,0.3,0.5,0.4s0.4,0.1,0.5,0.2
				c0.2,0,0.4,0.1,0.6,0.1C53.2,112.6,53.2,113.4,53.2,113.4z M51.6,96.2c0,0.5-0.2,0.9-0.5,1.2c-0.3,0.4-0.7,0.5-1.1,0.5
				c-0.4,0-0.8-0.2-1.1-0.5s-0.5-0.7-0.5-1.2s0.2-0.8,0.5-1.2c0.3-0.3,0.7-0.5,1.1-0.5c0.5,0,0.9,0.2,1.2,0.5
				C51.5,95.4,51.6,95.8,51.6,96.2z"/>
			<path style="fill:#414042;" d="M71.2,113.4h-6v-0.8c0.2,0,0.4,0,0.6,0s0.4-0.1,0.5-0.1c0.2-0.1,0.4-0.2,0.6-0.4
				c0.1-0.2,0.2-0.4,0.2-0.7v-8.9h-0.3l-4.2,10.8h-0.8l-3.9-11h-0.3v8.6c0,0.4,0.1,0.8,0.2,1c0.1,0.2,0.3,0.4,0.5,0.5
				s0.4,0.1,0.6,0.2c0.2,0,0.4,0.1,0.6,0.1v0.8h-4.8v-0.8c0.2,0,0.4,0,0.6,0c0.2,0,0.4-0.1,0.5-0.1c0.2-0.1,0.4-0.2,0.5-0.5
				c0.1-0.2,0.2-0.6,0.2-1v-7.5c0-0.3-0.1-0.6-0.2-0.8c-0.1-0.2-0.3-0.4-0.5-0.5s-0.4-0.2-0.6-0.2c-0.2,0-0.4-0.1-0.6-0.1v-0.8h5.1
				l3.1,8.8l2.7-7.3c0.1-0.2,0.2-0.5,0.3-0.9c0.1-0.3,0.2-0.6,0.2-0.6h5.2v0.8c-0.2,0-0.4,0-0.6,0.1c-0.2,0-0.3,0.1-0.5,0.1
				c-0.2,0.1-0.4,0.2-0.5,0.4c-0.1,0.2-0.2,0.4-0.2,0.7v8c0,0.3,0,0.5,0.1,0.7s0.3,0.3,0.5,0.4s0.4,0.1,0.6,0.2
				c0.2,0,0.4,0.1,0.6,0.1L71.2,113.4L71.2,113.4z"/>
			<path style="fill:#414042;" d="M83.8,110.5c-0.5,1-1.2,1.8-2.1,2.3c-0.9,0.6-1.8,0.9-3,0.9c-1,0-1.9-0.2-2.6-0.5
				s-1.4-0.8-1.8-1.4c-0.5-0.6-0.8-1.3-1.1-2.1c-0.2-0.8-0.4-1.6-0.4-2.5c0-0.8,0.1-1.6,0.4-2.3c0.3-0.8,0.6-1.5,1.1-2.1
				s1.1-1.1,1.8-1.4c0.7-0.4,1.5-0.5,2.4-0.5s1.7,0.1,2.3,0.4c0.6,0.3,1.2,0.7,1.6,1.2s0.7,1,0.8,1.6c0.2,0.6,0.3,1.3,0.3,2.1v0.8
				h-8.1c0,0.8,0.1,1.5,0.2,2.2c0.2,0.7,0.4,1.2,0.7,1.7c0.3,0.5,0.7,0.9,1.3,1.1c0.5,0.3,1.1,0.4,1.9,0.4c0.7,0,1.4-0.2,1.9-0.5
				s1-1,1.6-1.9L83.8,110.5z M81.1,105.9c0-0.5,0-1-0.1-1.5s-0.2-1-0.4-1.3c-0.2-0.4-0.4-0.7-0.8-0.9c-0.3-0.2-0.8-0.4-1.3-0.4
				c-0.9,0-1.6,0.4-2.2,1.1s-0.9,1.7-0.9,3C75.4,105.9,81.1,105.9,81.1,105.9z"/>
			<path style="fill:#414042;" d="M98.1,113.4h-6v-0.8c0.2,0,0.4,0,0.6,0s0.4-0.1,0.5-0.1c0.2-0.1,0.4-0.2,0.5-0.4
				c0.1-0.2,0.2-0.4,0.2-0.7v-3.3c-0.7,0.3-1.3,0.5-1.8,0.7s-1.1,0.3-1.9,0.3c-1.3,0-2.3-0.3-2.9-0.8s-0.9-1.3-0.9-2.4v-2.4
				c0-0.3-0.1-0.5-0.2-0.7s-0.3-0.3-0.5-0.4s-0.4-0.2-0.6-0.2s-0.4-0.1-0.6-0.1v-0.8h6v0.8c-0.2,0-0.5,0-0.6,0.1
				c-0.2,0-0.3,0.1-0.5,0.1c-0.2,0.1-0.4,0.2-0.5,0.4c-0.1,0.2-0.2,0.4-0.2,0.7v1.9c0,0.9,0.2,1.5,0.5,1.9c0.4,0.4,1,0.6,1.8,0.6
				c0.4,0,0.8,0,1.3-0.1s1-0.2,1.5-0.4v-3.8c0-0.3-0.1-0.5-0.2-0.7s-0.3-0.3-0.5-0.4s-0.4-0.2-0.6-0.2s-0.4-0.1-0.6-0.1v-0.8h6v0.8
				c-0.2,0-0.4,0-0.6,0.1c-0.2,0-0.3,0.1-0.5,0.1c-0.2,0.1-0.4,0.2-0.5,0.4c-0.1,0.2-0.2,0.4-0.2,0.7v8c0,0.3,0.1,0.5,0.1,0.7
				c0.1,0.2,0.3,0.3,0.5,0.4s0.4,0.1,0.6,0.2c0.2,0,0.4,0.1,0.6,0.1v0.6H98.1z"/>
			<path style="fill:#414042;" d="M112.7,113.4h-6v-0.8c0.2,0,0.4,0,0.6,0s0.4-0.1,0.5-0.1c0.2-0.1,0.4-0.2,0.5-0.4
				c0.1-0.2,0.2-0.4,0.2-0.7v-3.3c-0.7,0.3-1.3,0.5-1.8,0.7s-1.1,0.3-1.9,0.3c-1.3,0-2.3-0.3-2.9-0.8s-0.9-1.3-0.9-2.4v-2.4
				c0-0.3-0.1-0.5-0.2-0.7s-0.3-0.3-0.5-0.4s-0.4-0.2-0.6-0.2s-0.4-0.1-0.6-0.1v-0.8h6v0.8c-0.2,0-0.4,0-0.6,0.1
				c-0.2,0-0.3,0.1-0.5,0.1c-0.2,0.1-0.4,0.2-0.5,0.4c-0.1,0.2-0.2,0.4-0.2,0.7v1.9c0,0.9,0.2,1.5,0.5,1.9c0.4,0.4,1,0.6,1.8,0.6
				c0.4,0,0.8,0,1.3-0.1s1-0.2,1.5-0.4v-3.8c0-0.3-0.1-0.5-0.2-0.7s-0.3-0.3-0.5-0.4s-0.4-0.2-0.6-0.2s-0.4-0.1-0.6-0.1v-0.8h6v0.8
				c-0.2,0-0.5,0-0.6,0.1c-0.2,0-0.3,0.1-0.5,0.1c-0.2,0.1-0.4,0.2-0.5,0.4c-0.1,0.2-0.2,0.4-0.2,0.7v8c0,0.3,0,0.5,0.1,0.7
				s0.3,0.3,0.5,0.4s0.4,0.1,0.6,0.2c0.2,0,0.4,0.1,0.6,0.1v0.6H112.7z"/>
			<path style="fill:#414042;" d="M128.3,113.4h-6v-0.8c0.2,0,0.4,0,0.6,0s0.4-0.1,0.5-0.1c0.2-0.1,0.4-0.2,0.5-0.4
				c0.1-0.2,0.2-0.4,0.2-0.7V105l-5.6,6.1v0.2c0,0.3,0.1,0.5,0.2,0.7s0.3,0.3,0.5,0.4s0.4,0.1,0.6,0.2c0.2,0,0.4,0.1,0.6,0.1v0.8h-6
				v-0.8c0.2,0,0.4,0,0.6,0s0.4-0.1,0.5-0.1c0.2-0.1,0.4-0.2,0.5-0.4c0.1-0.2,0.2-0.4,0.2-0.7v-8c0-0.3-0.1-0.5-0.2-0.7
				s-0.3-0.3-0.5-0.4s-0.4-0.2-0.6-0.2s-0.4-0.1-0.6-0.1v-0.8h6v0.8c-0.2,0-0.5,0-0.6,0.1c-0.2,0-0.3,0.1-0.5,0.1
				c-0.2,0.1-0.4,0.2-0.5,0.4c-0.1,0.2-0.2,0.4-0.2,0.7v6.4l5.6-6.1c0-0.4-0.1-0.6-0.2-0.8c-0.1-0.2-0.3-0.3-0.5-0.4
				s-0.4-0.2-0.6-0.2s-0.4-0.1-0.6-0.1v-0.8h6v0.8c-0.2,0-0.5,0-0.6,0.1c-0.2,0-0.3,0.1-0.5,0.1c-0.2,0.1-0.4,0.2-0.5,0.4
				c-0.1,0.2-0.2,0.4-0.2,0.7v8c0,0.3,0,0.5,0.1,0.7s0.3,0.3,0.5,0.4s0.4,0.1,0.6,0.2c0.2,0,0.4,0.1,0.6,0.1L128.3,113.4
				L128.3,113.4z"/>
			<path style="fill:#414042;" d="M143.8,113.4h-6v-0.8c0.2,0,0.4,0,0.6,0c0.2,0,0.4-0.1,0.5-0.1c0.2-0.1,0.4-0.2,0.5-0.4
				c0.1-0.2,0.2-0.4,0.2-0.7v-3.9h-5.5v3.8c0,0.3,0.1,0.5,0.2,0.7c0.1,0.2,0.3,0.3,0.5,0.4s0.4,0.1,0.6,0.2c0.2,0,0.4,0.1,0.6,0.1
				v0.8h-6v-0.8c0.2,0,0.4,0,0.6,0c0.2,0,0.4-0.1,0.5-0.1c0.2-0.1,0.4-0.2,0.5-0.4c0.1-0.2,0.2-0.4,0.2-0.7v-8
				c0-0.3-0.1-0.5-0.2-0.7c-0.1-0.2-0.3-0.3-0.5-0.4s-0.4-0.2-0.6-0.2c-0.2,0-0.4-0.1-0.6-0.1v-0.8h6v0.8c-0.2,0-0.5,0-0.6,0.1
				c-0.2,0-0.3,0.1-0.5,0.1c-0.2,0.1-0.4,0.2-0.5,0.4c-0.1,0.2-0.2,0.4-0.2,0.7v3.2h5.5v-3c0-0.3-0.1-0.5-0.2-0.7
				c-0.1-0.2-0.3-0.3-0.5-0.4s-0.4-0.2-0.6-0.2c-0.2,0-0.4-0.1-0.6-0.1v-0.8h6v0.8c-0.2,0-0.5,0-0.6,0.1c-0.2,0-0.3,0.1-0.5,0.1
				c-0.2,0.1-0.4,0.2-0.5,0.4c-0.1,0.2-0.2,0.4-0.2,0.7v8c0,0.3,0.1,0.5,0.1,0.7c0.1,0.2,0.3,0.3,0.5,0.4s0.4,0.1,0.6,0.2
				c0.2,0,0.4,0.1,0.6,0.1L143.8,113.4L143.8,113.4z"/>
			<path style="fill:#414042;" d="M157.5,107.2c0,0.9-0.1,1.7-0.4,2.5c-0.3,0.8-0.7,1.5-1.2,2.1c-0.6,0.7-1.2,1.2-2,1.5
				c-0.7,0.3-1.6,0.5-2.5,0.5c-0.8,0-1.5-0.1-2.2-0.4s-1.3-0.7-1.9-1.3c-0.5-0.6-1-1.2-1.3-2s-0.5-1.7-0.5-2.7
				c0-1.9,0.6-3.5,1.7-4.7c1.1-1.2,2.6-1.8,4.4-1.8c1.7,0,3.1,0.6,4.3,1.7C156.9,103.7,157.5,105.2,157.5,107.2z M154.9,107.2
				c0-0.6-0.1-1.3-0.2-2c-0.1-0.7-0.3-1.3-0.6-1.8s-0.6-0.9-1-1.2c-0.4-0.3-1-0.5-1.6-0.5s-1.2,0.2-1.6,0.5
				c-0.5,0.3-0.8,0.7-1.1,1.3c-0.3,0.5-0.5,1.1-0.6,1.7s-0.2,1.3-0.2,1.9c0,0.8,0.1,1.5,0.2,2.2c0.1,0.7,0.3,1.3,0.6,1.8
				s0.6,0.9,1.1,1.3c0.4,0.3,1,0.5,1.6,0.5c1,0,1.9-0.5,2.5-1.5C154.6,110.4,154.9,109,154.9,107.2z"/>
			<path style="fill:#414042;" d="M167.7,112.1c-0.5-0.6-0.9-1.2-1.2-2s-0.5-1.7-0.5-2.7h-2.6v3.8c0,0.3,0.1,0.5,0.2,0.7
				c0.1,0.2,0.3,0.3,0.5,0.4s0.4,0.1,0.6,0.2c0.2,0,0.4,0.1,0.6,0.1v0.8h-6v-0.8c0.2,0,0.4,0,0.6,0c0.2,0,0.4-0.1,0.5-0.1
				c0.2-0.1,0.4-0.2,0.5-0.4c0.1-0.2,0.2-0.4,0.2-0.7v-8c0-0.3-0.1-0.5-0.2-0.7c-0.1-0.2-0.3-0.3-0.5-0.4s-0.4-0.2-0.6-0.2
				c-0.2,0-0.4-0.1-0.6-0.1v-0.8h6v0.8c-0.2,0-0.4,0-0.6,0.1c-0.2,0-0.3,0.1-0.5,0.1c-0.2,0.1-0.4,0.2-0.5,0.4
				c-0.1,0.2-0.2,0.4-0.2,0.7v3.2h2.6c0.2-1.7,0.7-3,1.8-4c1-1,2.4-1.6,4-1.6c0.9,0,1.7,0.2,2.5,0.5c0.7,0.3,1.3,0.8,1.8,1.3
				c0.5,0.6,0.9,1.2,1.1,2c0.3,0.8,0.4,1.6,0.4,2.5s-0.1,1.7-0.4,2.6c-0.3,0.8-0.6,1.5-1.1,2.1s-1.1,1.1-1.9,1.4
				c-0.7,0.3-1.6,0.5-2.6,0.5c-0.8,0-1.5-0.1-2.2-0.4C168.8,113.1,168.2,112.7,167.7,112.1z M174.3,111.2c0.3-0.5,0.4-1.1,0.6-1.8
				c0.1-0.7,0.2-1.4,0.2-2.2c0-0.7-0.1-1.3-0.2-2c-0.1-0.6-0.3-1.2-0.5-1.8c-0.3-0.5-0.6-0.9-1-1.2c-0.4-0.3-0.9-0.5-1.6-0.5
				c-0.7,0-1.2,0.2-1.7,0.5c-0.4,0.3-0.8,0.8-1,1.3s-0.4,1.1-0.5,1.7s-0.1,1.3-0.1,1.9c0,0.8,0.1,1.5,0.2,2.2
				c0.1,0.7,0.3,1.3,0.6,1.8s0.6,0.9,1,1.3c0.4,0.3,0.9,0.5,1.6,0.5c0.6,0,1.1-0.2,1.5-0.5C173.7,112.1,174,111.7,174.3,111.2z"/>
		</g>
		<g>
			<path style="fill:#414042;" d="M38.7,91.2c-0.7,0.3-1.6,0.6-2.7,0.6c-2.9,0-4.4-1.7-4.4-4.7s1.7-4.8,4.6-4.8
				c0.9,0,1.7,0.2,2.5,0.6l-0.5,1.8c-0.7-0.4-1.3-0.6-2-0.6c-1.3,0-2.2,0.9-2.2,2.8c0,2,0.8,3.2,2.4,3.2c0.7,0,1.3-0.2,1.9-0.5
				L38.7,91.2z"/>
			<path style="fill:#414042;" d="M46.6,91.6v-7.4h-3.7v7.4h-2.3v-9.2h8.2v9.2H46.6z"/>
			<path style="fill:#414042;" d="M53.2,80.8c-0.8,0-1.4-0.6-1.4-1.3c0-0.8,0.6-1.4,1.4-1.4c0.8,0,1.4,0.6,1.4,1.4
				C54.6,80.2,54,80.8,53.2,80.8z M52.1,91.6v-9.2h2.3v9.2H52.1z"/>
			<path style="fill:#414042;" d="M60.5,91.6c-1,0-2,0-2.9,0v-9.2c1,0,1.9-0.1,2.8-0.1c3.1,0,3.9,1.3,3.9,2.4c0,0.9-0.5,1.4-1.2,1.8
				c1,0.3,1.7,1.2,1.7,2.2C64.8,91,63.1,91.6,60.5,91.6z M60.6,84h-1v2.2h0.8c1.2,0,1.7-0.4,1.7-1.1C62.2,84.5,61.7,84,60.6,84z
				 M60.8,87.6h-1.2V90h1c1.1,0,1.9-0.2,1.9-1.2C62.6,87.8,61.6,87.6,60.8,87.6z"/>
			<path style="fill:#414042;" d="M73.2,91.6v-7.4h-3.7v7.4h-2.3v-9.2h8.2v9.2H73.2z"/>
			<path style="fill:#414042;" d="M78.6,82.6c1-0.2,2.3-0.5,3.7-0.5c3.5,0,4.6,2.6,4.6,4.8c0,1.8-1,4.8-4.6,4.8
				c-0.5,0-1-0.1-1.4-0.2V96h-2.3C78.6,96,78.6,82.6,78.6,82.6z M80.9,89.6c0.4,0.2,0.9,0.3,1.4,0.3c1.6,0,2.3-1.4,2.3-2.9
				c0-1.3-0.5-3-2.4-3c-0.4,0-0.8,0.1-1.2,0.2v5.4H80.9z"/>
			<path style="fill:#414042;" d="M94.1,91.6c-0.1-0.3-0.1-0.7-0.2-0.9c-0.8,0.6-1.5,1.2-2.7,1.2c-1.4,0-2.8-0.8-2.8-2.7
				c0-2.2,2.3-2.9,5.1-3.1v-0.7c0-0.8-0.3-1.5-1.2-1.5c-0.8,0-1.8,0.2-2.9,0.7L89,83c1.1-0.4,2.3-0.8,3.6-0.8c2.7,0,3.3,1.7,3.3,3.3
				v3.1c0,1.1,0.1,2.2,0.2,2.9L94.1,91.6L94.1,91.6z M93.6,87.4c-1.8,0-2.9,0.4-2.9,1.5c0,0.8,0.4,1.2,1.1,1.2
				c0.6,0,1.1-0.4,1.8-0.9V87.4z"/>
			<path style="fill:#414042;" d="M106.6,94.2v-2.6H99v-9.2h2.3v7.4h3.7v-7.4h2.3v7.3h1.4v4.5C108.7,94.2,106.6,94.2,106.6,94.2z"/>
			<path style="fill:#414042;" d="M114.2,82.4h3.2v9.2h-2.3v-3c-0.5,0-1,0-1.5-0.1l-1.3,3.1h-2.5l1.9-3.6c-1-0.4-1.8-1.2-1.8-2.5
				C110,84.4,110.6,82.4,114.2,82.4z M115.2,86.8v-2.6h-1c-1.3,0-1.7,0.6-1.7,1.3C112.4,86.6,113.8,86.9,115.2,86.8z"/>
			<path style="fill:#414042;" d="M127.8,91.8c-1.2,0-2.1-0.2-3.1-0.5l0.5-1.8c1,0.4,1.7,0.5,2.6,0.5c1.1,0,1.8-0.4,1.8-1.2
				c0-0.9-0.8-1.3-2.2-1.3h-1.1V86h0.9c1.4,0,2-0.5,2-1.2c0-0.6-0.5-1-1.4-1c-0.5,0-1.2,0.1-2.1,0.5l-0.7-1.6
				c1.1-0.5,2.1-0.7,3.3-0.7c1.9,0,3.4,0.8,3.4,2.4c0,1.1-0.5,1.5-1.3,1.9c0.9,0.4,1.7,1.1,1.7,2.3C132,90.8,130.2,91.8,127.8,91.8z
				"/>
		</g>
	</g>
	<g>
		<path style="fill:#D71D24;" d="M252.9,101v-7c0-0.9-0.4-1.5-1-2s-1.2-0.8-2.2-0.8h-0.4c-0.9,0-1.6,0.3-2.2,0.9
			c-0.6,0.6-1,1.2-1,2.1v6.4c0,0.9,0.4,1.5,1,2.1s1.3,0.9,2.2,0.9h0.4c0.9,0,1.5-0.3,2.2-0.8C252.6,102.4,252.9,101.8,252.9,101
			L252.9,101z M252.5,106c-0.1,0.1-0.2,0.2-0.3,0.3l0,0c0,0,0,0-0.1,0.1c0,0,0,0-0.1,0c0,0-0.1,0-0.1,0.1c0,0-0.1,0-0.1,0.1h-0.1
			h-0.1h-0.1h-0.1h-0.1h-0.1h-0.1H251h-0.1h-0.1h-0.1h-0.1h-0.1h-0.1h-0.1c-0.4,0.1-0.7,0.1-1.1,0.1h-0.3c-1.8,0-3.4-0.7-4.6-1.8
			c-1.2-1.2-1.9-2.6-1.9-4.4V94c0-1.8,0.7-3.2,1.9-4.4c1.2-1.2,2.8-1.8,4.6-1.8h0.4c0.4,0,0.7,0,1,0.1h0.1h0.1h0.1h0.1h0.1h0.1h0.1
			h0.1h0.1h0.1h0.1h0.1h0.1h0.1h0.1l0,0l0,0l0,0l0,0l0,0l0,0l0,0l0,0l0,0l0,0l0,0l0,0l0,0l0,0l0,0l0,0l0,0l0,0c0,0,0,0,0.1,0l0,0
			c0,0,0,0,0.1,0c0,0,0,0,0.1,0c0,0,0,0,0.1,0c0,0,0,0,0.1,0c0,0,0,0,0.1,0l0,0c0,0,0,0,0-0.1c0,0,0,0,0-0.1c0,0,0,0,0-0.1
			c0,0,0,0,0-0.1c0-0.2,0-0.5,0.3-0.6c0.2,0,0.3,0,0.5,0h1.5h0.8c0.2,0,0.6-0.1,0.7,0.2c0.1,0.2,0,0.7,0,0.9v3.2v7.6v4
			c0,1.3,0.1,2.6-0.1,4c-0.4,3.7-2.2,6.8-6.1,7.4c-2.3,0.4-4.7-0.4-6.5-1.9c-0.2-0.2-0.7-0.5-0.7-0.8c0-0.1,0.1-0.2,0.1-0.3
			c0,0,1.5-1.6,1.6-1.7s0.3-0.3,0.4-0.3c0.2,0,0.5,0.2,0.9,0.5c0.7,0.4,1.5,0.8,2.3,0.9c0.5,0.1,1.1,0,1.6-0.2c2-0.6,2.5-3.1,2.6-5
			l0,0l0,0l0,0l0,0l0,0l0,0l0,0l0,0l0,0l0,0l0,0l0,0l0,0l0,0l0,0l0,0l0,0l0,0l0,0C252.6,106,252.6,106,252.5,106
			C252.6,106,252.6,106,252.5,106C252.6,106,252.5,106,252.5,106L252.5,106z"/>
		<path style="fill:#D71D24;" d="M283.2,106.7v-2.6c0-0.1,0-0.3-0.1-0.3c-0.1-0.1-0.2-0.1-0.3-0.1h-7c-0.2,0-0.3,0-0.4-0.1
			s-0.1-0.1-0.1-0.2s0-0.2,0.1-0.3l7.7-14.5c0,0,0-0.1,0.1-0.1c0-0.1,0-0.1,0-0.2c0-0.2-0.2-0.3-0.5-0.3h-12.6
			c-0.3,0-0.4,0.1-0.4,0.4v2.5c0,0.3,0.1,0.4,0.4,0.4h6.6c0.2,0,0.3,0,0.4,0.1s0.1,0.1,0.1,0.3c0,0,0,0.1,0,0.2s0,0.1-0.1,0.1
			l-7.8,14.5c0,0,0,0.1-0.1,0.2v0.1c0,0.2,0.2,0.3,0.5,0.3h13.1c0.2,0,0.3,0,0.3-0.1C283.2,106.9,283.2,106.8,283.2,106.7
			L283.2,106.7z"/>
		<path style="fill:#D71D24;" d="M261.4,85.5c0,0.1,0.1,0.2,0.1,0.3c0.1,0.1,0.2,0.1,0.4,0.1h2.7c0.2,0,0.3,0,0.4-0.1
			s0.1-0.2,0.1-0.3v-0.1v-2.9c0-0.2,0-0.3-0.1-0.4s-0.2-0.1-0.4-0.1h-0.2c-0.2,0-0.3,0-0.5,0.2l-2.2,2.5l-0.1,0.1
			c-0.1,0.1-0.2,0.2-0.2,0.4L261.4,85.5C261.4,85.4,261.4,85.5,261.4,85.5L261.4,85.5z"/>
		<path style="fill:#D71D24;" d="M265.1,88.4c0-0.2,0-0.3-0.1-0.3c-0.1-0.1-0.2-0.1-0.4-0.1h-2.8c-0.2,0-0.3,0-0.4,0.1
			s-0.1,0.2-0.1,0.3v0.1v10.4v7.8c0,0.2,0,0.3,0.1,0.3c0.1,0.1,0.2,0.1,0.4,0.1h2.8c0.2,0,0.3,0,0.4-0.1s0.1-0.2,0.1-0.3V88.4
			L265.1,88.4z"/>
		<path style="fill:#D71D24;" d="M292.8,106.8c0-0.1-0.1-0.1-0.2-0.1h-1.7l1.9-3.7c0-0.1,0-0.1,0-0.2s0-0.2-0.1-0.2
			c-0.1-0.1-0.1-0.1-0.2-0.1h-1.9c-0.1,0-0.2,0-0.2,0.1s-0.1,0.1-0.1,0.2s0,0.1,0.1,0.2c0,0.1,0.1,0.1,0.2,0.1h1.6l-1.9,3.7
			c0,0.1,0,0.1,0,0.2s0,0.2,0.1,0.2c0,0.1,0.1,0.1,0.2,0.1h2c0.1,0,0.1,0,0.2-0.1c0-0.1,0.1-0.1,0.1-0.2S292.9,106.8,292.8,106.8
			L292.8,106.8z M296.1,104.2c0-0.1,0-0.1-0.1-0.2c-0.1,0-0.1-0.1-0.2-0.1s-0.1,0-0.2,0.1c0,0-0.1,0.1-0.1,0.2v2
			c0,0.2-0.1,0.3-0.2,0.4s-0.2,0.2-0.4,0.2h0.1c-0.2,0-0.3-0.1-0.4-0.2s-0.2-0.2-0.2-0.4v-2c0-0.1,0-0.1-0.1-0.2
			c0,0-0.1-0.1-0.2-0.1s-0.1,0-0.2,0.1c-0.1,0-0.1,0.1-0.1,0.2v2c0,0.2,0,0.3,0.1,0.5c0.1,0.1,0.1,0.2,0.2,0.3
			c0.1,0.1,0.2,0.2,0.3,0.2c0.1,0,0.3,0.1,0.4,0.1h0.1c0.1,0,0.2,0,0.3-0.1c0.1,0,0.2-0.1,0.2-0.1c0,0.1,0,0.1,0.1,0.1
			c0,0,0.1,0,0.2,0s0.1,0,0.2-0.1c0.1,0,0.1-0.1,0.1-0.2v-2.7H296.1z M299.6,106.3c0-0.2,0-0.4-0.1-0.5s-0.2-0.2-0.3-0.3
			c-0.1-0.1-0.3-0.1-0.4-0.2c-0.2,0-0.3-0.1-0.4-0.1s-0.2-0.1-0.3-0.1c-0.1-0.1-0.1-0.1-0.1-0.3l0,0c0-0.1,0.1-0.2,0.2-0.3
			c0.1-0.1,0.2-0.1,0.4-0.1l0,0c0.1,0,0.3,0,0.4,0.1c0.1,0,0.2,0.1,0.2,0.1c0.1,0,0.1,0,0.1,0c0.1,0,0.1,0,0.2-0.1
			c0,0,0.1-0.1,0.1-0.2s0-0.1-0.1-0.2l-0.1-0.1c0,0-0.1-0.1-0.2-0.1s-0.2-0.1-0.3-0.1c-0.1,0-0.2,0-0.3,0l0,0c-0.1,0-0.2,0-0.3,0
			c-0.1,0-0.2,0.1-0.4,0.1c-0.1,0.1-0.2,0.2-0.3,0.3c-0.1,0.1-0.1,0.2-0.1,0.4c0,0.2,0,0.4,0.1,0.5s0.2,0.2,0.3,0.3
			c0.1,0.1,0.3,0.1,0.4,0.1c0.2,0,0.3,0.1,0.4,0.1s0.2,0.1,0.3,0.2c0.1,0.1,0.1,0.2,0.1,0.3l0,0c0,0.1-0.1,0.2-0.2,0.3
			c-0.1,0.1-0.3,0.1-0.5,0.1l0,0c-0.1,0-0.3,0-0.4-0.1s-0.2-0.2-0.3-0.3l-0.1-0.1h-0.1c-0.1,0-0.1,0-0.2,0.1c-0.1,0-0.1,0.1-0.1,0.2
			v0.1c0.1,0.1,0.1,0.2,0.2,0.3c0.1,0.1,0.2,0.2,0.3,0.2c0.1,0.1,0.2,0.1,0.3,0.1c0.1,0,0.2,0,0.3,0l0,0c0.1,0,0.3,0,0.4-0.1
			c0.1,0,0.3-0.1,0.4-0.2s0.2-0.2,0.3-0.3C299.5,106.6,299.6,106.5,299.6,106.3L299.6,106.3L299.6,106.3z M303.1,106.8
			c0-0.1-0.1-0.1-0.2-0.1s-0.2-0.1-0.2-0.2V105c0-0.1,0-0.3-0.1-0.4s-0.1-0.2-0.2-0.3c-0.1-0.1-0.2-0.2-0.3-0.2
			c-0.1-0.1-0.3-0.1-0.4-0.1l0,0c-0.1,0-0.2,0-0.3,0c-0.1,0-0.2,0.1-0.3,0.1c-0.1,0-0.2,0.1-0.3,0.2c-0.1,0.1-0.1,0.2-0.2,0.3v0.1
			c0,0.1,0,0.1,0.1,0.2c0.1,0,0.1,0.1,0.2,0.1h0.1l0.1-0.1c0.1-0.1,0.1-0.2,0.2-0.3c0.1-0.1,0.2-0.1,0.3-0.1l0,0
			c0.2,0,0.3,0,0.4,0.1s0.2,0.2,0.2,0.4c0,0,0,0,0,0.1c0,0,0,0,0,0.1c0,0-0.1,0.1-0.2,0.1s-0.2,0-0.3,0.1c-0.1,0-0.3,0.1-0.4,0.1
			s-0.3,0.1-0.4,0.2s-0.2,0.2-0.3,0.3c-0.1,0.1-0.1,0.3-0.1,0.4v0.1c0,0.2,0,0.3,0.1,0.4s0.1,0.2,0.2,0.3c0.1,0.1,0.2,0.1,0.3,0.2
			c0.1,0,0.3,0.1,0.4,0.1h0.1c0.3,0,0.5-0.1,0.7-0.3c0,0.1,0.1,0.1,0.2,0.2c0.1,0,0.2,0.1,0.3,0.1l0,0c0.1,0,0.1,0,0.2-0.1
			c0-0.1,0.1-0.1,0.1-0.2C303.2,106.9,303.1,106.9,303.1,106.8L303.1,106.8z M302.2,106.2c0,0.2-0.1,0.3-0.2,0.4s-0.2,0.2-0.4,0.2
			h-0.1c-0.2,0-0.3,0-0.4-0.1s-0.2-0.2-0.2-0.3v-0.1c0-0.1,0-0.2,0.1-0.3c0.1-0.1,0.2-0.1,0.3-0.1c0.1,0,0.3-0.1,0.4-0.1
			s0.3,0,0.4-0.1v0.5H302.2z M308.1,105c0-0.2,0-0.3-0.1-0.5c-0.1-0.1-0.1-0.2-0.2-0.3c-0.1-0.1-0.2-0.2-0.3-0.2
			c-0.1,0-0.3-0.1-0.4-0.1H307c-0.2,0-0.3,0-0.5,0.1c-0.1,0.1-0.3,0.2-0.4,0.3c-0.1-0.1-0.2-0.2-0.4-0.3c-0.1-0.1-0.3-0.1-0.5-0.1
			h-0.1c-0.1,0-0.2,0-0.3,0c-0.1,0-0.2,0.1-0.2,0.2c0-0.1,0-0.1-0.1-0.2c-0.1,0-0.1,0-0.2,0s-0.1,0-0.2,0.1c0,0-0.1,0.1-0.1,0.2v2.8
			c0,0.1,0,0.1,0.1,0.2c0.1,0,0.1,0.1,0.2,0.1s0.1,0,0.2-0.1c0.1,0,0.1-0.1,0.1-0.2v-2c0-0.2,0.1-0.3,0.2-0.4s0.3-0.1,0.4-0.1h0.1
			c0.2,0,0.3,0.1,0.4,0.2s0.2,0.2,0.2,0.4v2c0,0.1,0,0.2,0.1,0.2s0.1,0.1,0.2,0.1s0.1,0,0.2-0.1c0.1,0,0.1-0.1,0.1-0.2v-2
			c0-0.2,0.1-0.3,0.2-0.4s0.2-0.2,0.4-0.2h0.1c0.2,0,0.3,0.1,0.4,0.1c0.1,0.1,0.2,0.2,0.2,0.4v2c0,0.1,0,0.1,0.1,0.2
			c0.1,0,0.1,0.1,0.2,0.1s0.1,0,0.2-0.1c0.1,0,0.1-0.1,0.1-0.2v-2H308.1z M313.3,105c0-0.2,0-0.3-0.1-0.5c-0.1-0.1-0.1-0.2-0.2-0.3
			c-0.1-0.1-0.2-0.2-0.3-0.2c-0.1,0-0.3-0.1-0.4-0.1h-0.1c-0.2,0-0.3,0-0.5,0.1c-0.1,0.1-0.3,0.2-0.4,0.3c-0.1-0.1-0.2-0.2-0.4-0.3
			c-0.1-0.1-0.3-0.1-0.5-0.1h-0.1c-0.1,0-0.2,0-0.3,0c-0.1,0-0.2,0.1-0.2,0.2c0-0.1,0-0.1-0.1-0.2c0,0-0.1,0-0.2,0s-0.1,0-0.2,0.1
			c-0.1,0-0.1,0.1-0.1,0.2v2.8c0,0.1,0,0.1,0.1,0.2c0,0,0.1,0.1,0.2,0.1s0.1,0,0.2-0.1c0.1,0,0.1-0.1,0.1-0.2v-2
			c0-0.2,0.1-0.3,0.2-0.4s0.3-0.1,0.4-0.1h0.1c0.2,0,0.3,0.1,0.4,0.2s0.2,0.2,0.2,0.4v2c0,0.1,0,0.2,0.1,0.2s0.1,0.1,0.2,0.1
			s0.1,0,0.2-0.1c0.1,0,0.1-0.1,0.1-0.2v-2c0-0.2,0.1-0.3,0.2-0.4s0.2-0.2,0.4-0.2h0.1c0.2,0,0.3,0.1,0.4,0.1
			c0.1,0.1,0.2,0.2,0.2,0.4v2c0,0.1,0,0.1,0.1,0.2c0.1,0,0.1,0.1,0.2,0.1s0.1,0,0.2-0.1c0.1,0,0.1-0.1,0.1-0.2v-2H313.3z M316.7,105
			c0-0.2,0-0.3-0.1-0.4s-0.1-0.2-0.2-0.3c-0.1-0.1-0.2-0.2-0.3-0.2c-0.1-0.1-0.3-0.1-0.4-0.1h-0.1c-0.1,0-0.3,0-0.4,0.1
			s-0.2,0.1-0.3,0.2c-0.1,0.1-0.2,0.2-0.2,0.3c-0.1,0.1-0.1,0.3-0.1,0.4v1.2c0,0.2,0,0.3,0.1,0.4s0.1,0.2,0.2,0.3
			c0.1,0.1,0.2,0.2,0.3,0.2c0.1,0.1,0.3,0.1,0.4,0.1h0.1c0.2,0,0.4-0.1,0.6-0.2s0.3-0.3,0.4-0.5v-0.1c0-0.1,0-0.1-0.1-0.2
			s-0.1-0.1-0.2-0.1h-0.1l-0.1,0.1c0,0.1-0.1,0.2-0.2,0.2c-0.1,0.1-0.2,0.1-0.3,0.1h-0.1c-0.2,0-0.3-0.1-0.4-0.2s-0.2-0.2-0.2-0.4
			v-0.3h1.5c0.1,0,0.1,0,0.2-0.1c0-0.1,0.1-0.1,0.1-0.2L316.7,105L316.7,105z M316.1,105.4h-1.2V105c0-0.2,0.1-0.3,0.2-0.4
			s0.3-0.2,0.4-0.2h0.1c0.1,0,0.3,0.1,0.4,0.2s0.2,0.2,0.2,0.4v0.4H316.1z M320,105c0-0.2,0-0.3-0.1-0.5c-0.1-0.1-0.1-0.2-0.2-0.3
			c-0.1-0.1-0.2-0.2-0.3-0.2c-0.1,0-0.3-0.1-0.4-0.1h-0.1c-0.1,0-0.2,0-0.3,0c-0.1,0-0.2,0.1-0.3,0.2c0-0.1,0-0.1-0.1-0.2
			c-0.1,0-0.1,0-0.2,0s-0.1,0-0.2,0.1c-0.1,0-0.1,0.1-0.1,0.2v2.8c0,0.1,0,0.1,0.1,0.2c0.1,0,0.1,0.1,0.2,0.1s0.1,0,0.2-0.1
			c0.1,0,0.1-0.1,0.1-0.2v-2c0-0.2,0.1-0.3,0.2-0.4s0.2-0.2,0.4-0.2h0.1c0.2,0,0.3,0.1,0.4,0.2s0.2,0.2,0.2,0.4v2
			c0,0.1,0,0.1,0.1,0.2c0.1,0,0.1,0.1,0.2,0.1s0.1,0,0.2-0.1c0,0,0.1-0.1,0.1-0.2v-2H320z M323.6,106.8c0-0.1-0.1-0.1-0.2-0.1
			s-0.2-0.1-0.2-0.2V105c0-0.1,0-0.3-0.1-0.4s-0.1-0.2-0.2-0.3c-0.1-0.1-0.2-0.2-0.3-0.2c-0.1-0.1-0.3-0.1-0.4-0.1l0,0
			c-0.1,0-0.2,0-0.3,0c-0.1,0-0.2,0.1-0.3,0.1c-0.1,0-0.2,0.1-0.3,0.2c-0.1,0.1-0.1,0.2-0.2,0.3v0.1c0,0.1,0,0.1,0.1,0.2
			c0.1,0,0.1,0.1,0.2,0.1h0.1l0.1-0.1c0.1-0.1,0.1-0.2,0.2-0.3c0.1-0.1,0.2-0.1,0.3-0.1l0,0c0.1,0,0.3,0,0.4,0.1s0.2,0.2,0.2,0.4
			c0,0,0,0,0,0.1c0,0,0,0,0,0.1c0,0-0.1,0.1-0.2,0.1s-0.2,0-0.3,0.1c-0.1,0-0.3,0.1-0.4,0.1s-0.3,0.1-0.4,0.2s-0.2,0.2-0.3,0.3
			c-0.1,0.1-0.1,0.3-0.1,0.4v0.1c0,0.2,0,0.3,0.1,0.4s0.1,0.2,0.2,0.3c0.1,0.1,0.2,0.1,0.3,0.2c0.1,0,0.3,0.1,0.4,0.1h0.1
			c0.3,0,0.5-0.1,0.7-0.3c0,0.1,0.1,0.1,0.2,0.2c0.1,0,0.2,0.1,0.3,0.1l0,0c0.1,0,0.1,0,0.2-0.1c0-0.1,0.1-0.1,0.1-0.2
			C323.7,106.9,323.7,106.9,323.6,106.8L323.6,106.8z M322.8,106.2c0,0.2-0.1,0.3-0.2,0.4s-0.3,0.2-0.4,0.2h-0.1
			c-0.2,0-0.3,0-0.4-0.1s-0.2-0.2-0.2-0.3v-0.1c0-0.1,0-0.2,0.1-0.3c0.1-0.1,0.2-0.1,0.3-0.1c0.1,0,0.2-0.1,0.4-0.1
			c0.1,0,0.3,0,0.4-0.1v0.5H322.8z M326.4,104.3c-0.1-0.1-0.2-0.2-0.3-0.2c-0.1-0.1-0.3-0.1-0.4-0.1s-0.2,0-0.2,0
			c-0.1,0-0.1,0-0.2,0c0,0-0.1,0-0.1,0.1l-0.1-0.1H325c-0.1,0-0.1,0-0.2,0.1c-0.1,0-0.1,0.1-0.1,0.2v2.8c0,0.1,0,0.2,0.1,0.2
			s0.1,0.1,0.2,0.1s0.1,0,0.2-0.1c0.1,0,0.1-0.1,0.1-0.2V105c0-0.1,0-0.1,0-0.2s0-0.1,0.1-0.1l0.1-0.1c0.1,0,0.1,0,0.2,0
			s0.2,0,0.2,0.1l0.1,0.1c0.1,0.1,0.1,0.1,0.2,0.1s0.1,0,0.2-0.1c0.1,0,0.1-0.1,0.1-0.2C326.4,104.4,326.4,104.3,326.4,104.3
			L326.4,104.3L326.4,104.3z M329.7,105c0-0.1,0-0.3-0.1-0.4s-0.1-0.2-0.2-0.3c-0.1-0.1-0.2-0.2-0.3-0.2c-0.1-0.1-0.3-0.1-0.4-0.1
			l0,0c-0.1,0-0.2,0-0.3,0.1c-0.1,0-0.2,0.1-0.2,0.2v-1.4c0-0.1,0-0.1-0.1-0.2c-0.1,0-0.1-0.1-0.2-0.1s-0.1,0-0.2,0.1
			c-0.1,0-0.1,0.1-0.1,0.2v4.2c0,0.1,0,0.1,0.1,0.2c0.1,0,0.1,0.1,0.2,0.1s0.1,0,0.2,0l0.1-0.1c0.1,0,0.1,0.1,0.2,0.1
			s0.2,0.1,0.4,0.1h0.1c0.1,0,0.3,0,0.4-0.1s0.2-0.1,0.3-0.2c0.1-0.1,0.2-0.2,0.2-0.3c0.1-0.1,0.1-0.3,0.1-0.4V105H329.7z
			 M329.2,106.2c0,0.2-0.1,0.3-0.2,0.4s-0.3,0.2-0.4,0.2h-0.1c-0.1,0-0.3,0-0.4-0.1s-0.2-0.2-0.2-0.4V105c0-0.2,0.1-0.3,0.2-0.4
			s0.2-0.1,0.4-0.1h0.1c0.2,0,0.3,0.1,0.4,0.2s0.2,0.2,0.2,0.4V106.2L329.2,106.2z M333,105c0-0.2,0-0.3-0.1-0.4s-0.1-0.2-0.2-0.3
			c-0.1-0.1-0.2-0.2-0.3-0.2c-0.1-0.1-0.3-0.1-0.4-0.1h-0.1c-0.1,0-0.3,0-0.4,0.1s-0.3,0.1-0.3,0.2c-0.1,0.1-0.2,0.2-0.2,0.3
			c-0.1,0.1-0.1,0.3-0.1,0.4v1.2c0,0.2,0,0.3,0.1,0.4s0.1,0.2,0.2,0.3c0.1,0.1,0.2,0.2,0.3,0.2c0.1,0.1,0.3,0.1,0.4,0.1h0.1
			c0.2,0,0.4-0.1,0.6-0.2s0.3-0.3,0.4-0.5v-0.1c0-0.1,0-0.1-0.1-0.2s-0.1-0.1-0.2-0.1h-0.1l-0.1,0.1c0,0.1-0.1,0.2-0.2,0.2
			c-0.1,0.1-0.2,0.1-0.3,0.1h-0.1c-0.2,0-0.3-0.1-0.4-0.2s-0.2-0.2-0.2-0.4v-0.3h1.5c0.1,0,0.1,0,0.2-0.1s0.1-0.1,0.1-0.2L333,105
			L333,105z M332.5,105.4h-1.2V105c0-0.2,0.1-0.3,0.2-0.4s0.2-0.2,0.4-0.2h0.1c0.1,0,0.3,0.1,0.4,0.2s0.2,0.2,0.2,0.4v0.4H332.5z
			 M334.7,102.8c0-0.1,0-0.1-0.1-0.2c-0.1,0-0.1-0.1-0.2-0.1s-0.1,0-0.2,0.1c-0.1,0-0.1,0.1-0.1,0.2v0.2c0,0.1,0,0.1,0.1,0.2
			c0.1,0,0.1,0.1,0.2,0.1s0.1,0,0.2-0.1c0.1,0,0.1-0.1,0.1-0.2V102.8L334.7,102.8z M334.7,104.2c0-0.1,0-0.1-0.1-0.2
			c-0.1,0-0.1-0.1-0.2-0.1s-0.1,0-0.2,0.1c-0.1,0-0.1,0.1-0.1,0.2v2.8c0,0.1,0,0.1,0.1,0.2c0.1,0,0.1,0.1,0.2,0.1s0.1,0,0.2-0.1
			c0.1,0,0.1-0.1,0.1-0.2V104.2L334.7,104.2z M337.4,106.8c0,0-0.1-0.1-0.2-0.1s-0.2,0-0.3-0.1c-0.1-0.1-0.1-0.2-0.1-0.3v-1.9h0.4
			c0.1,0,0.2,0,0.2-0.1s0.1-0.1,0.1-0.2s0-0.1-0.1-0.2c0-0.1-0.1-0.1-0.2-0.1h-0.4v-1.2c0-0.1,0-0.1-0.1-0.2c0,0-0.1-0.1-0.2-0.1
			s-0.1,0-0.2,0.1c-0.1,0-0.1,0.1-0.1,0.2v1.2H336c-0.1,0-0.1,0-0.2,0.1c0,0.1-0.1,0.1-0.1,0.2s0,0.1,0.1,0.2c0,0.1,0.1,0.1,0.2,0.1
			h0.2v1.9c0,0.1,0,0.2,0.1,0.3c0,0.1,0.1,0.2,0.2,0.3c0.1,0.1,0.2,0.1,0.3,0.2c0.1,0,0.2,0.1,0.3,0.1c0.1,0,0.2,0,0.2-0.1
			s0.1-0.1,0.1-0.2C337.4,106.9,337.4,106.9,337.4,106.8L337.4,106.8z M341.1,107.1c-0.1-0.2-0.2-0.4-0.3-0.6
			c-0.1-0.2-0.1-0.5-0.2-0.7c0-0.3-0.1-0.5-0.1-0.8s0-0.5,0.1-0.8c0-0.3,0.1-0.5,0.2-0.7s0.2-0.4,0.3-0.6c0.1-0.2,0.2-0.3,0.3-0.4
			c0,0,0.1-0.1,0.1-0.2s0-0.1-0.1-0.2s-0.1-0.1-0.2-0.1s-0.1,0-0.2,0.1s-0.3,0.3-0.4,0.5s-0.2,0.4-0.3,0.7c-0.1,0.2-0.2,0.5-0.2,0.8
			c-0.1,0.3-0.1,0.6-0.1,0.9s0,0.6,0.1,0.9s0.1,0.6,0.2,0.8c0.1,0.2,0.2,0.5,0.3,0.7c0.1,0.2,0.3,0.4,0.4,0.5s0.1,0.1,0.2,0.1
			s0.1,0,0.2-0.1c0.1,0,0.1-0.1,0.1-0.2s0-0.1-0.1-0.2C341.4,107.5,341.3,107.3,341.1,107.1L341.1,107.1z M345,104.9
			c0-0.1,0-0.1-0.1-0.2s-0.1-0.1-0.2-0.1h-1c-0.1,0-0.2,0-0.2,0.1s-0.1,0.1-0.1,0.2s0,0.1,0.1,0.2c0,0.1,0.1,0.1,0.2,0.1h0.7v0.8
			c0,0.1,0,0.2-0.1,0.3c0,0.1-0.1,0.2-0.2,0.2c-0.1,0.1-0.1,0.1-0.2,0.2c-0.1,0-0.2,0.1-0.3,0.1h-0.1c-0.1,0-0.2,0-0.3-0.1
			c-0.1,0-0.2-0.1-0.2-0.2c-0.1-0.1-0.1-0.1-0.2-0.2c0-0.1-0.1-0.2-0.1-0.3v-2.2c0-0.1,0-0.2,0.1-0.3c0-0.1,0.1-0.2,0.2-0.2
			c0.1-0.1,0.1-0.1,0.2-0.2c0.1,0,0.2-0.1,0.3-0.1h0.1c0.2,0,0.4,0.1,0.5,0.2s0.2,0.3,0.2,0.5c0,0.1,0,0.1,0.1,0.2
			c0,0,0.1,0.1,0.2,0.1s0.1,0,0.2-0.1c0.1,0,0.1-0.1,0.1-0.2l0,0c0-0.2-0.1-0.3-0.1-0.4c-0.1-0.1-0.2-0.2-0.3-0.3
			c-0.1-0.1-0.2-0.2-0.4-0.2c-0.1-0.1-0.3-0.1-0.5-0.1h-0.1c-0.2,0-0.3,0-0.5,0.1s-0.3,0.2-0.4,0.3c-0.1,0.1-0.2,0.3-0.3,0.4
			c-0.1,0.2-0.1,0.3-0.1,0.5v2.2c0,0.2,0,0.3,0.1,0.5s0.2,0.3,0.3,0.4c0.1,0.1,0.3,0.2,0.4,0.3c0.2,0.1,0.3,0.1,0.5,0.1h0.1
			c0.2,0,0.3,0,0.5-0.1s0.3-0.2,0.4-0.3c0.1-0.1,0.2-0.2,0.3-0.4c0.1-0.2,0.1-0.3,0.1-0.5L345,104.9L345,104.9z M346.8,102.8
			c0-0.1,0-0.1-0.1-0.2c0,0-0.1-0.1-0.2-0.1s-0.1,0-0.2,0.1c-0.1,0-0.1,0.1-0.1,0.2v4.2c0,0.1,0,0.1,0.1,0.2c0.1,0,0.1,0.1,0.2,0.1
			s0.1,0,0.2-0.1c0.1,0,0.1-0.1,0.1-0.2V102.8L346.8,102.8z M350.6,106.8c0-0.1-0.1-0.1-0.2-0.1h-1.7l1.9-3.7c0-0.1,0.1-0.1,0.1-0.2
			s0-0.2-0.1-0.2c-0.1-0.1-0.1-0.1-0.2-0.1h-1.9c-0.1,0-0.2,0-0.2,0.1s-0.1,0.1-0.1,0.2s0,0.1,0.1,0.2c0,0.1,0.1,0.1,0.2,0.1h1.6
			l-1.9,3.7c0,0.1,0,0.1,0,0.2s0,0.2,0.1,0.2c0.1,0.1,0.1,0.1,0.2,0.1h2c0.1,0,0.1,0,0.2-0.1c0-0.1,0.1-0.1,0.1-0.2
			C350.6,106.9,350.6,106.8,350.6,106.8L350.6,106.8z M352.9,104.1c0-0.3-0.1-0.5-0.2-0.8s-0.2-0.5-0.3-0.7
			c-0.1-0.2-0.2-0.4-0.4-0.5c0-0.1-0.1-0.1-0.2-0.1s-0.1,0-0.2,0.1s-0.1,0.1-0.1,0.2s0,0.1,0.1,0.2s0.2,0.3,0.3,0.4
			c0.1,0.2,0.2,0.4,0.3,0.6c0.1,0.2,0.1,0.5,0.2,0.7c0,0.2,0.1,0.5,0.1,0.8s0,0.6-0.1,0.8c0,0.3-0.1,0.5-0.2,0.7s-0.2,0.4-0.3,0.6
			c-0.1,0.2-0.2,0.3-0.3,0.4c0,0-0.1,0.1-0.1,0.2s0,0.1,0.1,0.2s0.1,0.1,0.2,0.1s0.1,0,0.2-0.1s0.3-0.3,0.4-0.5s0.2-0.4,0.3-0.7
			c0.1-0.3,0.2-0.5,0.2-0.8c0.1-0.3,0.1-0.6,0.1-0.9C353,104.7,352.9,104.4,352.9,104.1L352.9,104.1z M358.2,104.9
			c0-0.1,0-0.1-0.1-0.2s-0.1-0.1-0.2-0.1h-1c-0.1,0-0.1,0-0.2,0.1c0,0.1-0.1,0.1-0.1,0.2s0,0.1,0.1,0.2c0,0.1,0.1,0.1,0.2,0.1h0.7
			v0.8c0,0.1,0,0.2-0.1,0.3c0,0.1-0.1,0.2-0.2,0.2c-0.1,0.1-0.1,0.1-0.2,0.2c-0.1,0-0.2,0.1-0.3,0.1h-0.1c-0.1,0-0.2,0-0.3-0.1
			c-0.1,0-0.2-0.1-0.2-0.2c-0.1-0.1-0.1-0.1-0.2-0.2c0-0.1-0.1-0.2-0.1-0.3v-2.2c0-0.1,0-0.2,0.1-0.3c0-0.1,0.1-0.2,0.2-0.2
			c0.1-0.1,0.1-0.1,0.2-0.2c0.1,0,0.2-0.1,0.3-0.1h0.1c0.2,0,0.4,0.1,0.5,0.2s0.2,0.3,0.2,0.5c0,0.1,0,0.1,0.1,0.2
			c0.1,0,0.1,0.1,0.2,0.1s0.1,0,0.2-0.1c0.1,0,0.1-0.1,0.1-0.2l0,0c0-0.2-0.1-0.3-0.1-0.4c-0.1-0.1-0.2-0.2-0.3-0.3
			c-0.1-0.1-0.2-0.2-0.4-0.2c-0.1-0.1-0.3-0.1-0.5-0.1h-0.1c-0.2,0-0.3,0-0.5,0.1s-0.3,0.2-0.4,0.3c-0.1,0.1-0.2,0.3-0.3,0.4
			c-0.1,0.2-0.1,0.3-0.1,0.5v2.2c0,0.2,0,0.3,0.1,0.5s0.2,0.3,0.3,0.4c0.1,0.1,0.3,0.2,0.4,0.3c0.2,0.1,0.3,0.1,0.5,0.1h0.1
			c0.2,0,0.3,0,0.5-0.1s0.3-0.2,0.4-0.3c0.1-0.1,0.2-0.2,0.3-0.4c0.1-0.2,0.1-0.3,0.1-0.5L358.2,104.9L358.2,104.9z M363.4,105
			c0-0.2,0-0.3-0.1-0.5c-0.1-0.1-0.1-0.2-0.2-0.3c-0.1-0.1-0.2-0.2-0.3-0.2c-0.1,0-0.3-0.1-0.4-0.1h-0.1c-0.2,0-0.3,0-0.5,0.1
			c-0.1,0.1-0.3,0.2-0.4,0.3c-0.1-0.1-0.2-0.2-0.4-0.3c-0.1-0.1-0.3-0.1-0.5-0.1h-0.1c-0.1,0-0.2,0-0.3,0c-0.1,0-0.2,0.1-0.2,0.2
			c0-0.1,0-0.1-0.1-0.2c0,0-0.1,0-0.2,0s-0.1,0-0.2,0.1c-0.1,0-0.1,0.1-0.1,0.2v2.8c0,0.1,0,0.1,0.1,0.2c0.1,0,0.1,0.1,0.2,0.1
			s0.1,0,0.2-0.1c0.1,0,0.1-0.1,0.1-0.2v-2c0-0.2,0.1-0.3,0.2-0.4s0.2-0.1,0.4-0.1h0.1c0.2,0,0.3,0.1,0.4,0.2s0.2,0.2,0.2,0.4v2
			c0,0.1,0,0.2,0.1,0.2s0.1,0.1,0.2,0.1s0.1,0,0.2-0.1c0.1,0,0.1-0.1,0.1-0.2v-2c0-0.2,0.1-0.3,0.2-0.4s0.2-0.2,0.4-0.2h0.1
			c0.2,0,0.3,0.1,0.4,0.1c0.1,0.1,0.2,0.2,0.2,0.4v2c0,0.1,0,0.1,0.1,0.2c0.1,0,0.1,0.1,0.2,0.1s0.1,0,0.2-0.1
			c0.1,0,0.1-0.1,0.1-0.2v-2H363.4z M366.9,105c0-0.1,0-0.3-0.1-0.4s-0.1-0.2-0.2-0.3c-0.1-0.1-0.2-0.2-0.4-0.2
			c-0.1-0.1-0.3-0.1-0.4-0.1l0,0c-0.1,0-0.2,0-0.3,0.1c-0.1,0-0.2,0.1-0.2,0.2v-1.4c0-0.1,0-0.1-0.1-0.2c-0.1,0-0.1-0.1-0.2-0.1
			s-0.1,0-0.2,0.1c-0.1,0-0.1,0.1-0.1,0.2v4.2c0,0.1,0,0.1,0.1,0.2c0.1,0,0.1,0.1,0.2,0.1s0.1,0,0.2,0l0.1-0.1c0,0,0.1,0.1,0.2,0.1
			s0.2,0.1,0.4,0.1h0.1c0.1,0,0.3,0,0.4-0.1s0.2-0.1,0.3-0.2c0.1-0.1,0.2-0.2,0.2-0.3c0.1-0.1,0.1-0.3,0.1-0.4V105H366.9z
			 M366.4,106.2c0,0.2-0.1,0.3-0.2,0.4s-0.2,0.2-0.4,0.2h-0.1c-0.1,0-0.3,0-0.4-0.1s-0.2-0.2-0.2-0.4V105c0-0.2,0.1-0.3,0.2-0.4
			s0.3-0.1,0.4-0.1h0.1c0.2,0,0.3,0.1,0.4,0.2s0.2,0.2,0.2,0.4V106.2L366.4,106.2z M370.8,102.8c0-0.1,0-0.1-0.1-0.2
			c-0.1,0-0.1-0.1-0.2-0.1s-0.1,0-0.2,0.1c-0.1,0-0.1,0.1-0.1,0.2v1.8h-1.6v-1.8c0-0.1,0-0.1-0.1-0.2c-0.1,0-0.1-0.1-0.2-0.1
			s-0.1,0-0.2,0.1c-0.1,0-0.1,0.1-0.1,0.2v4.2c0,0.1,0,0.1,0.1,0.2c0.1,0,0.1,0.1,0.2,0.1s0.1,0,0.2-0.1c0,0,0.1-0.1,0.1-0.2v-1.9
			h1.6v1.9c0,0.1,0,0.2,0.1,0.2s0.1,0.1,0.2,0.1s0.1,0,0.2-0.1c0.1,0,0.1-0.1,0.1-0.2V102.8L370.8,102.8z"/>
		<path style="fill:#D71D24;" d="M291.8,95.2c0-0.1-0.1-0.1-0.2-0.1s-0.2,0-0.3,0.1c-0.1,0-0.2,0.1-0.3,0.2
			c-0.1,0.1-0.1,0.2-0.2,0.3c0,0.1-0.1,0.2-0.1,0.4v0.5h-0.2c-0.1,0-0.2,0-0.2,0.1s-0.1,0.1-0.1,0.2s0,0.1,0.1,0.2
			c0,0.1,0.1,0.1,0.2,0.1h0.2v2.5c0,0.1,0,0.1,0.1,0.2c0.1,0,0.1,0.1,0.2,0.1s0.1,0,0.2-0.1c0.1,0,0.1-0.1,0.1-0.2v-2.5h0.3
			c0.1,0,0.1,0,0.2-0.1c0,0,0.1-0.1,0.1-0.2s0-0.1-0.1-0.2c0-0.1-0.1-0.1-0.2-0.1h-0.3v-0.5c0-0.1,0-0.2,0.1-0.3
			c0.1-0.1,0.1-0.1,0.3-0.1c0.1,0,0.1,0,0.2-0.1c0-0.1,0.1-0.1,0.1-0.2C291.9,95.4,291.8,95.3,291.8,95.2L291.8,95.2z M294.8,95.4
			c0-0.1,0-0.1-0.1-0.2c-0.1,0-0.1-0.1-0.2-0.1s-0.1,0-0.2,0.1c-0.1,0-0.1,0.1-0.1,0.2v0.1c0,0.1,0,0.2,0.1,0.2s0.1,0.1,0.2,0.1
			s0.1,0,0.2-0.1C294.8,95.7,294.8,95.6,294.8,95.4L294.8,95.4L294.8,95.4z M293.6,95.4c0-0.1,0-0.1-0.1-0.2c-0.1,0-0.1-0.1-0.2-0.1
			s-0.1,0-0.2,0.1c-0.1,0-0.1,0.1-0.1,0.2v0.1c0,0.1,0,0.2,0.1,0.2s0.1,0.1,0.2,0.1s0.1,0,0.2-0.1C293.6,95.7,293.6,95.6,293.6,95.4
			L293.6,95.4L293.6,95.4z M295,96.8c0-0.1,0-0.1-0.1-0.2c-0.1,0-0.1-0.1-0.2-0.1s-0.1,0-0.2,0.1c0,0-0.1,0.1-0.1,0.2v2
			c0,0.2-0.1,0.3-0.2,0.4s-0.3,0.2-0.4,0.2h-0.1c-0.2,0-0.3-0.1-0.4-0.2s-0.2-0.2-0.2-0.4v-2c0-0.1,0-0.1-0.1-0.2
			c-0.1,0-0.1-0.1-0.2-0.1s-0.1,0-0.2,0.1c-0.1,0-0.1,0.1-0.1,0.2v2c0,0.2,0,0.4,0.1,0.5s0.1,0.2,0.2,0.3c0.1,0.1,0.2,0.2,0.4,0.2
			c0.1,0,0.3,0.1,0.4,0.1h0.1c0.1,0,0.2,0,0.3-0.1c0.1,0,0.2-0.1,0.2-0.2c0,0.1,0,0.1,0.1,0.2c0.1,0,0.1,0,0.2,0s0.1,0,0.2-0.1
			c0.1,0,0.1-0.1,0.1-0.2v-2.7H295z M297.9,96.9c-0.1-0.1-0.2-0.2-0.3-0.2c-0.1-0.1-0.3-0.1-0.4-0.1s-0.2,0-0.2,0
			c-0.1,0-0.1,0-0.1,0s-0.1,0-0.1,0.1c0-0.1-0.1-0.1-0.1-0.1h-0.1c-0.1,0-0.1,0-0.2,0.1c-0.1,0-0.1,0.1-0.1,0.2v2.8
			c0,0.1,0,0.2,0.1,0.2s0.1,0.1,0.2,0.1s0.1,0,0.2-0.1c0.1,0,0.1-0.1,0.1-0.2v-2.1c0-0.1,0-0.1,0-0.2s0-0.1,0.1-0.1l0.1-0.1
			c0.1,0,0.1,0,0.2,0s0.2,0,0.2,0.1l0.1,0.1c0.1,0.1,0.1,0.1,0.2,0.1s0.1,0,0.2-0.1c0,0,0.1-0.1,0.1-0.2C298,97,297.9,97,297.9,96.9
			L297.9,96.9L297.9,96.9z M301.7,95.4c0-0.1,0-0.1-0.1-0.2c-0.1,0-0.1-0.1-0.2-0.1s-0.1,0-0.2,0.1c-0.1,0-0.1,0.1-0.1,0.2v4.2
			c0,0.1,0,0.1,0.1,0.2c0,0,0.1,0.1,0.2,0.1s0.1,0,0.2-0.1c0.1,0,0.1-0.1,0.1-0.2V95.4L301.7,95.4z M305.3,97.7c0-0.2,0-0.3-0.1-0.5
			c-0.1-0.1-0.1-0.2-0.2-0.3c-0.1-0.1-0.2-0.2-0.3-0.2c-0.1,0-0.3-0.1-0.4-0.1h-0.1c-0.1,0-0.2,0-0.3,0.1c-0.1,0-0.2,0.1-0.2,0.1
			c0-0.1,0-0.1-0.1-0.1c0,0-0.1-0.1-0.2-0.1s-0.1,0-0.2,0.1c-0.1,0-0.1,0.1-0.1,0.2v2.8c0,0.1,0,0.1,0.1,0.2c0.1,0,0.1,0.1,0.2,0.1
			s0.1,0,0.2-0.1c0.1,0,0.1-0.1,0.1-0.2v-2c0-0.2,0.1-0.3,0.2-0.4s0.2-0.2,0.4-0.2h0.1c0.2,0,0.3,0.1,0.4,0.2s0.2,0.2,0.2,0.4v2
			c0,0.1,0,0.1,0.1,0.2c0.1,0,0.1,0.1,0.2,0.1s0.1,0,0.2-0.1c0,0,0.1-0.1,0.1-0.2v-2H305.3z M307.9,99.5c0-0.1-0.1-0.1-0.2-0.1
			s-0.2,0-0.3-0.1c-0.1-0.1-0.1-0.2-0.1-0.3v-1.9h0.4c0.1,0,0.1,0,0.2-0.1c0,0,0.1-0.1,0.1-0.2s0-0.1-0.1-0.2c0-0.1-0.1-0.1-0.2-0.1
			h-0.4v-1.2c0-0.1,0-0.1-0.1-0.2c-0.1,0-0.1-0.1-0.2-0.1s-0.1,0-0.2,0.1c-0.1,0-0.1,0.1-0.1,0.2v1.2h-0.2c-0.1,0-0.1,0-0.2,0.1
			c0,0.1-0.1,0.1-0.1,0.2s0,0.1,0.1,0.2c0,0.1,0.1,0.1,0.2,0.1h0.2V99c0,0.1,0,0.2,0.1,0.3c0,0.1,0.1,0.2,0.2,0.3
			c0.1,0.1,0.2,0.1,0.3,0.2c0.1,0,0.2,0.1,0.3,0.1c0.1,0,0.2,0,0.2-0.1s0.1-0.1,0.1-0.2C307.9,99.6,307.9,99.5,307.9,99.5
			L307.9,99.5z M311.1,97.7c0-0.2,0-0.3-0.1-0.4s-0.1-0.2-0.2-0.3c-0.1-0.1-0.2-0.2-0.3-0.2c-0.1-0.1-0.3-0.1-0.4-0.1H310
			c-0.1,0-0.3,0-0.4,0.1s-0.3,0.1-0.4,0.2s-0.2,0.2-0.2,0.3c-0.1,0.1-0.1,0.3-0.1,0.4v1.2c0,0.1,0,0.3,0.1,0.4s0.1,0.2,0.2,0.3
			c0.1,0.1,0.2,0.2,0.4,0.2c0.1,0.1,0.3,0.1,0.4,0.1h0.1c0.2,0,0.4-0.1,0.6-0.2s0.3-0.3,0.4-0.5v-0.1c0-0.1,0-0.1-0.1-0.2
			s-0.1-0.1-0.2-0.1h-0.1l-0.1,0.1c0,0.1-0.1,0.2-0.2,0.2c-0.1,0.1-0.2,0.1-0.3,0.1H310c-0.2,0-0.3-0.1-0.4-0.2s-0.2-0.2-0.2-0.4
			v-0.3h1.5c0.1,0,0.1,0,0.2-0.1s0.1-0.1,0.1-0.2L311.1,97.7L311.1,97.7z M310.6,98h-1.2v-0.3c0-0.2,0.1-0.3,0.2-0.4
			s0.3-0.2,0.4-0.2h0.1c0.1,0,0.3,0.1,0.4,0.2s0.2,0.2,0.2,0.4V98H310.6z M313.8,96.9c-0.1-0.1-0.2-0.2-0.3-0.2
			c-0.1-0.1-0.3-0.1-0.4-0.1s-0.2,0-0.2,0c-0.1,0-0.1,0-0.1,0c-0.1,0-0.1,0-0.1,0.1c0-0.1-0.1-0.1-0.1-0.1h-0.1
			c-0.1,0-0.1,0-0.2,0.1c-0.1,0-0.1,0.1-0.1,0.2v2.8c0,0.1,0,0.2,0.1,0.2s0.1,0.1,0.2,0.1s0.1,0,0.2-0.1c0.1,0,0.1-0.1,0.1-0.2v-2.1
			c0-0.1,0-0.1,0-0.2s0-0.1,0.1-0.1l0.1-0.1c0.1,0,0.1,0,0.2,0s0.2,0,0.2,0.1l0.1,0.1c0.1,0.1,0.1,0.1,0.2,0.1s0.1,0,0.2-0.1
			c0,0,0.1-0.1,0.1-0.2C313.9,97,313.9,97,313.8,96.9L313.8,96.9L313.8,96.9z M317,97.7c0-0.2,0-0.3-0.1-0.5
			c-0.1-0.1-0.1-0.2-0.2-0.3c-0.1-0.1-0.2-0.2-0.3-0.2c-0.1,0-0.3-0.1-0.4-0.1h-0.1c-0.1,0-0.2,0-0.3,0.1c-0.1,0-0.2,0.1-0.3,0.1
			c0-0.1,0-0.1-0.1-0.1s-0.1-0.1-0.2-0.1s-0.1,0-0.2,0.1c-0.1,0-0.1,0.1-0.1,0.2v2.8c0,0.1,0,0.1,0.1,0.2c0.1,0,0.1,0.1,0.2,0.1
			s0.1,0,0.2-0.1c0.1,0,0.1-0.1,0.1-0.2v-2c0-0.2,0.1-0.3,0.2-0.4s0.3-0.2,0.4-0.2h0.1c0.2,0,0.3,0.1,0.4,0.2s0.2,0.2,0.2,0.4v2
			c0,0.1,0,0.1,0.1,0.2c0.1,0,0.1,0.1,0.2,0.1s0.1,0,0.2-0.1c0.1,0,0.1-0.1,0.1-0.2v-2H317z M320.6,99.5c0,0-0.1-0.1-0.2-0.1
			s-0.2-0.1-0.2-0.2v-1.6c0-0.1,0-0.3-0.1-0.4s-0.1-0.2-0.2-0.3c-0.1-0.1-0.2-0.2-0.3-0.2c-0.1-0.1-0.3-0.1-0.4-0.1l0,0
			c-0.1,0-0.2,0-0.3,0c-0.1,0-0.2,0-0.3,0.1c-0.1,0-0.2,0.1-0.3,0.2c-0.1,0.1-0.1,0.2-0.2,0.3v0.1c0,0.1,0,0.1,0.1,0.2
			c0.1,0,0.1,0.1,0.2,0.1h0.1l0.1-0.1c0.1-0.1,0.1-0.2,0.2-0.2c0.1-0.1,0.2-0.1,0.3-0.1l0,0c0.1,0,0.3,0,0.4,0.1s0.2,0.2,0.2,0.4
			c0,0,0,0,0,0.1c0,0,0,0,0,0.1c0,0-0.1,0.1-0.2,0.1s-0.2,0-0.3,0.1c-0.1,0-0.3,0.1-0.4,0.1s-0.3,0.1-0.4,0.2s-0.2,0.2-0.3,0.3
			c-0.1,0.1-0.1,0.3-0.1,0.4v0.1c0,0.2,0,0.3,0.1,0.4s0.1,0.2,0.2,0.3c0.1,0.1,0.2,0.1,0.3,0.2c0.1,0,0.3,0.1,0.4,0.1h0.1
			c0.3,0,0.5-0.1,0.7-0.3c0,0.1,0.1,0.1,0.2,0.2c0.1,0,0.2,0.1,0.3,0.1c0,0,0,0,0.1,0s0.1,0,0.2-0.1c0-0.1,0.1-0.1,0.1-0.2
			C320.7,99.6,320.7,99.5,320.6,99.5L320.6,99.5z M319.8,98.8c0,0.2-0.1,0.3-0.2,0.4s-0.3,0.2-0.4,0.2h-0.1c-0.2,0-0.3,0-0.4-0.1
			s-0.2-0.2-0.2-0.3l0,0c0-0.1,0-0.2,0.1-0.3c0.1-0.1,0.2-0.1,0.3-0.1c0.1,0,0.3-0.1,0.4-0.1s0.3,0,0.4-0.1v0.4H319.8z M322.9,99.5
			c0-0.1-0.1-0.1-0.2-0.1s-0.2,0-0.3-0.1c-0.1-0.1-0.1-0.2-0.1-0.3v-1.9h0.4c0.1,0,0.2,0,0.2-0.1c0,0,0.1-0.1,0.1-0.2s0-0.1-0.1-0.2
			c0-0.1-0.1-0.1-0.2-0.1h-0.4v-1.2c0-0.1,0-0.1-0.1-0.2c-0.1,0-0.1-0.1-0.2-0.1s-0.1,0-0.2,0.1c-0.1,0-0.1,0.1-0.1,0.2v1.2h-0.2
			c-0.1,0-0.1,0-0.2,0.1c0,0.1-0.1,0.1-0.1,0.2s0,0.1,0.1,0.2c0,0.1,0.1,0.1,0.2,0.1h0.2V99c0,0.1,0,0.2,0.1,0.3
			c0,0.1,0.1,0.2,0.2,0.3c0.1,0.1,0.2,0.1,0.3,0.2c0.1,0,0.2,0.1,0.3,0.1c0.1,0,0.2,0,0.2-0.1s0.1-0.1,0.1-0.2
			C323,99.6,322.9,99.5,322.9,99.5L322.9,99.5z M324.6,95.4c0-0.1,0-0.1-0.1-0.2c-0.1,0-0.1-0.1-0.2-0.1s-0.1,0-0.2,0.1
			c-0.1,0-0.1,0.1-0.1,0.2v0.1c0,0.1,0,0.2,0.1,0.2s0.1,0.1,0.2,0.1s0.1,0,0.2-0.1C324.6,95.7,324.6,95.6,324.6,95.4L324.6,95.4
			L324.6,95.4z M324.6,96.8c0-0.1,0-0.1-0.1-0.2c-0.1,0-0.1-0.1-0.2-0.1s-0.1,0-0.2,0.1c-0.1,0-0.1,0.1-0.1,0.2v2.8
			c0,0.1,0,0.1,0.1,0.2c0.1,0,0.1,0.1,0.2,0.1s0.1,0,0.2-0.1c0.1,0,0.1-0.1,0.1-0.2V96.8L324.6,96.8z M328,97.7c0-0.1,0-0.3-0.1-0.4
			s-0.1-0.2-0.2-0.3c-0.1-0.1-0.2-0.2-0.3-0.2c-0.1-0.1-0.3-0.1-0.4-0.1h-0.1c-0.1,0-0.3,0-0.4,0.1s-0.2,0.1-0.3,0.2
			c-0.1,0.1-0.2,0.2-0.2,0.3c-0.1,0.1-0.1,0.3-0.1,0.4v1.2c0,0.1,0,0.3,0.1,0.4s0.1,0.2,0.2,0.3c0.1,0.1,0.2,0.2,0.3,0.2
			c0.1,0.1,0.3,0.1,0.4,0.1h0.1c0.2,0,0.3,0,0.4-0.1s0.3-0.1,0.3-0.2c0.1-0.1,0.2-0.2,0.2-0.3c0.1-0.1,0.1-0.3,0.1-0.4V97.7
			L328,97.7z M327.5,98.8c0,0.2-0.1,0.3-0.2,0.4s-0.2,0.2-0.4,0.2h-0.1c-0.2,0-0.3-0.1-0.4-0.2s-0.2-0.2-0.2-0.4v-1.2
			c0-0.2,0.1-0.3,0.2-0.4s0.2-0.2,0.4-0.2h0.1c0.2,0,0.3,0.1,0.4,0.2s0.2,0.2,0.2,0.4V98.8L327.5,98.8z M331.4,97.7
			c0-0.2,0-0.3-0.1-0.5c-0.1-0.1-0.1-0.2-0.2-0.3c-0.1-0.1-0.2-0.2-0.3-0.2c-0.1,0-0.3-0.1-0.4-0.1h-0.1c-0.1,0-0.2,0-0.3,0.1
			c-0.1,0-0.2,0.1-0.2,0.1c0-0.1,0-0.1-0.1-0.1s-0.1-0.1-0.2-0.1s-0.1,0-0.2,0.1c-0.1,0-0.1,0.1-0.1,0.2v2.8c0,0.1,0,0.1,0.1,0.2
			c0.1,0,0.1,0.1,0.2,0.1s0.1,0,0.2-0.1c0.1,0,0.1-0.1,0.1-0.2v-2c0-0.2,0.1-0.3,0.2-0.4s0.2-0.2,0.4-0.2h0.1c0.2,0,0.3,0.1,0.4,0.2
			s0.2,0.2,0.2,0.4v2c0,0.1,0,0.1,0.1,0.2c0.1,0,0.1,0.1,0.2,0.1s0.1,0,0.2-0.1c0.1,0,0.1-0.1,0.1-0.2v-2H331.4z M335,99.5
			c0,0-0.1-0.1-0.2-0.1s-0.2-0.1-0.2-0.2v-1.6c0-0.1,0-0.3-0.1-0.4s-0.1-0.2-0.2-0.3c-0.1-0.1-0.2-0.2-0.3-0.2
			c-0.1-0.1-0.3-0.1-0.4-0.1l0,0c-0.1,0-0.2,0-0.3,0c-0.1,0-0.2,0-0.3,0.1c-0.1,0-0.2,0.1-0.3,0.2c-0.1,0.1-0.1,0.2-0.2,0.3v0.1
			c0,0.1,0,0.1,0.1,0.2c0.1,0,0.1,0.1,0.2,0.1h0.1l0.1-0.1c0.1-0.1,0.1-0.2,0.2-0.2c0.1-0.1,0.2-0.1,0.3-0.1l0,0
			c0.1,0,0.3,0,0.4,0.1s0.2,0.2,0.2,0.4c0,0,0,0,0,0.1c0,0,0,0,0,0.1c0,0-0.1,0.1-0.2,0.1s-0.2,0-0.3,0.1c-0.1,0-0.3,0.1-0.4,0.1
			s-0.3,0.1-0.4,0.2s-0.2,0.2-0.3,0.3c-0.1,0.1-0.1,0.3-0.1,0.4v0.1c0,0.2,0,0.3,0.1,0.4s0.1,0.2,0.2,0.3c0.1,0.1,0.2,0.1,0.3,0.2
			c0.1,0,0.3,0.1,0.4,0.1h0.1c0.3,0,0.5-0.1,0.7-0.3c0,0.1,0.1,0.1,0.2,0.2c0.1,0,0.2,0.1,0.3,0.1l0,0c0.1,0,0.1,0,0.2-0.1
			c0-0.1,0.1-0.1,0.1-0.2C335.1,99.6,335.1,99.5,335,99.5L335,99.5z M334.2,98.8c0,0.2-0.1,0.3-0.2,0.4s-0.3,0.2-0.4,0.2h-0.1
			c-0.2,0-0.3,0-0.4-0.1s-0.2-0.2-0.2-0.3l0,0c0-0.1,0-0.2,0.1-0.3c0.1-0.1,0.2-0.1,0.3-0.1c0.1,0,0.3-0.1,0.4-0.1s0.3,0,0.4-0.1
			v0.4H334.2z M337.2,99.5c0,0-0.1-0.1-0.2-0.1s-0.2,0-0.3-0.1c-0.1-0.1-0.1-0.2-0.1-0.3v-3.6c0-0.1,0-0.1-0.1-0.2
			c-0.1,0-0.1-0.1-0.2-0.1s-0.1,0-0.2,0.1c-0.1,0-0.1,0.1-0.1,0.2V99c0,0.1,0,0.2,0.1,0.3c0,0.1,0.1,0.2,0.2,0.3
			c0.1,0.1,0.2,0.1,0.3,0.2c0.1,0,0.2,0.1,0.3,0.1c0.1,0,0.2,0,0.2-0.1s0.1-0.1,0.1-0.2C337.2,99.6,337.2,99.5,337.2,99.5
			L337.2,99.5z M340.4,97.7c0-0.2,0-0.3-0.1-0.4s-0.1-0.2-0.2-0.3c-0.1-0.1-0.2-0.2-0.3-0.2c-0.1-0.1-0.3-0.1-0.4-0.1h-0.1
			c-0.1,0-0.3,0-0.4,0.1s-0.2,0.1-0.3,0.2c-0.1,0.1-0.2,0.2-0.2,0.3c-0.1,0.1-0.1,0.3-0.1,0.4v1.2c0,0.1,0,0.3,0.1,0.4
			s0.1,0.2,0.2,0.3c0.1,0.1,0.2,0.2,0.3,0.2c0.1,0.1,0.3,0.1,0.4,0.1h0.1c0.2,0,0.4-0.1,0.6-0.2s0.3-0.3,0.4-0.5v-0.1
			c0-0.1,0-0.1-0.1-0.2s-0.1-0.1-0.2-0.1H340l-0.1,0.1c0,0.1-0.1,0.2-0.2,0.2c-0.1,0.1-0.2,0.1-0.3,0.1h-0.1c-0.2,0-0.3-0.1-0.4-0.2
			s-0.2-0.2-0.2-0.4v-0.3h1.5c0.1,0,0.1,0,0.2-0.1c0-0.1,0.1-0.1,0.1-0.2L340.4,97.7L340.4,97.7z M339.9,98h-1.2v-0.3
			c0-0.2,0.1-0.3,0.2-0.4s0.2-0.2,0.4-0.2h0.1c0.1,0,0.3,0.1,0.4,0.2s0.2,0.2,0.2,0.4V98H339.9z"/>
		<path style="fill:#D71D24;" d="M293.3,89.1c0-0.2,0-0.3-0.1-0.5s-0.2-0.3-0.3-0.4c-0.1-0.1-0.3-0.2-0.4-0.3
			c-0.2-0.1-0.3-0.1-0.5-0.1h-1.1c-0.1,0-0.1,0-0.2,0.1c0,0.1-0.1,0.1-0.1,0.2v4.1c0,0.1,0,0.1,0.1,0.2s0.1,0.1,0.2,0.1h1.1
			c0.2,0,0.3,0,0.5-0.1s0.3-0.2,0.4-0.3c0.1-0.1,0.2-0.3,0.3-0.4c0.1-0.2,0.1-0.3,0.1-0.5V89.1L293.3,89.1z M292.7,91.2
			c0,0.1,0,0.2-0.1,0.3c0,0.1-0.1,0.2-0.2,0.2c-0.1,0.1-0.2,0.1-0.2,0.2c-0.1,0-0.2,0.1-0.3,0.1h-0.8v-3.6h0.8c0.1,0,0.2,0,0.3,0.1
			c0.1,0,0.2,0.1,0.2,0.2c0.1,0.1,0.1,0.1,0.2,0.2c0,0.1,0.1,0.2,0.1,0.3V91.2L292.7,91.2z M296.7,90.3c0-0.2,0-0.3-0.1-0.4
			s-0.1-0.2-0.2-0.3c-0.1-0.1-0.2-0.2-0.3-0.2c-0.1-0.1-0.3-0.1-0.4-0.1h-0.1c-0.2,0-0.3,0-0.4,0.1s-0.2,0.1-0.4,0.2
			c-0.1,0.1-0.2,0.2-0.2,0.3c-0.1,0.1-0.1,0.3-0.1,0.4v1.2c0,0.2,0,0.3,0.1,0.4s0.1,0.2,0.2,0.3c0.1,0.1,0.2,0.2,0.4,0.2
			c0.1,0.1,0.3,0.1,0.4,0.1h0.1c0.2,0,0.4-0.1,0.6-0.2s0.3-0.3,0.4-0.5v-0.1c0-0.1,0-0.1-0.1-0.2c-0.1,0-0.1-0.1-0.2-0.1h-0.1
			l-0.1,0.1c0,0.1-0.1,0.2-0.2,0.2c-0.1,0.1-0.2,0.1-0.3,0.1h-0.1c-0.2,0-0.3-0.1-0.4-0.2s-0.2-0.2-0.2-0.4v-0.3h1.5
			c0.1,0,0.1,0,0.2-0.1c0,0,0.1-0.1,0.1-0.2L296.7,90.3L296.7,90.3z M296.2,90.6H295v-0.3c0-0.2,0.1-0.3,0.2-0.4s0.3-0.2,0.4-0.2
			h0.1c0.1,0,0.3,0.1,0.4,0.2s0.2,0.3,0.2,0.4v0.3H296.2z M300,89.5c0-0.1,0-0.2-0.1-0.2s-0.1-0.1-0.2-0.1s-0.1,0-0.2,0.1
			c-0.1,0-0.1,0.1-0.1,0.2v2c0,0.2-0.1,0.3-0.2,0.4s-0.3,0.2-0.4,0.2h-0.1c-0.2,0-0.3-0.1-0.4-0.2s-0.2-0.2-0.2-0.4v-2
			c0-0.1,0-0.2-0.1-0.2s-0.1-0.1-0.2-0.1s-0.1,0-0.2,0.1c-0.1,0-0.1,0.1-0.1,0.2v2c0,0.2,0,0.3,0.1,0.5c0.1,0.1,0.1,0.2,0.2,0.3
			c0.1,0.1,0.2,0.2,0.3,0.2c0.1,0,0.3,0.1,0.4,0.1h0.1c0.1,0,0.2,0,0.3,0c0.1,0,0.2-0.1,0.2-0.1c0,0.1,0,0.1,0.1,0.1s0.1,0,0.2,0
			s0.1,0,0.2-0.1c0.1,0,0.1-0.1,0.1-0.2v-2.8H300z M302.6,92.1c0-0.1-0.1-0.1-0.2-0.1s-0.2,0-0.3-0.1c-0.1-0.1-0.1-0.2-0.1-0.3v-1.9
			h0.4c0.1,0,0.1,0,0.2-0.1c0-0.1,0.1-0.1,0.1-0.2s0-0.1-0.1-0.2c0-0.1-0.1-0.1-0.2-0.1H302v-1.2c0-0.1,0-0.1-0.1-0.2
			c0,0-0.1-0.1-0.2-0.1s-0.1,0-0.2,0.1c-0.1,0-0.1,0.1-0.1,0.2v1.2h-0.2c-0.1,0-0.2,0-0.2,0.1s-0.1,0.1-0.1,0.2s0,0.1,0.1,0.2
			c0,0.1,0.1,0.1,0.2,0.1h0.2v1.9c0,0.1,0,0.2,0.1,0.3c0,0.1,0.1,0.2,0.2,0.3c0.1,0.1,0.2,0.1,0.3,0.2c0.1,0,0.2,0.1,0.3,0.1
			c0.1,0,0.2,0,0.2-0.1s0.1-0.1,0.1-0.2C302.6,92.2,302.6,92.2,302.6,92.1L302.6,92.1z M305.9,91.6c0-0.2,0-0.4-0.1-0.5
			s-0.2-0.2-0.3-0.3c-0.1-0.1-0.3-0.1-0.4-0.2c-0.2,0-0.3-0.1-0.4-0.1s-0.2-0.1-0.3-0.1c-0.1-0.1-0.1-0.1-0.1-0.3l0,0
			c0-0.1,0.1-0.2,0.2-0.3c0.1-0.1,0.2-0.1,0.4-0.1l0,0c0.2,0,0.3,0,0.4,0.1c0.1,0,0.2,0.1,0.2,0.1c0.1,0,0.1,0,0.1,0
			c0.1,0,0.1,0,0.2-0.1c0-0.1,0.1-0.1,0.1-0.2s0-0.1-0.1-0.2l-0.1-0.1c0,0-0.1-0.1-0.2-0.1s-0.2-0.1-0.3-0.1c-0.1,0-0.2,0-0.3,0l0,0
			c-0.1,0-0.2,0-0.4,0c-0.1,0-0.2,0.1-0.4,0.1c-0.1,0.1-0.2,0.2-0.3,0.3c-0.1,0.1-0.1,0.2-0.1,0.4c0,0.2,0,0.4,0.1,0.5
			s0.2,0.2,0.3,0.3c0.1,0.1,0.3,0.1,0.4,0.1c0.2,0,0.3,0.1,0.4,0.1s0.2,0.1,0.3,0.2c0.1,0.1,0.1,0.2,0.1,0.3l0,0
			c0,0.1-0.1,0.2-0.2,0.3c-0.1,0.1-0.3,0.1-0.5,0.1l0,0c-0.1,0-0.3,0-0.4-0.1s-0.2-0.2-0.3-0.3l-0.1-0.1h-0.1c-0.1,0-0.1,0-0.2,0.1
			c-0.1,0-0.1,0.1-0.1,0.2v0.1c0.1,0.1,0.1,0.2,0.2,0.3c0.1,0.1,0.2,0.2,0.3,0.2c0.1,0.1,0.2,0.1,0.3,0.1c0.1,0,0.2,0,0.3,0l0,0
			c0.1,0,0.3,0,0.4-0.1c0.1,0,0.3-0.1,0.4-0.2s0.2-0.2,0.3-0.3C305.9,91.9,305.9,91.8,305.9,91.6L305.9,91.6L305.9,91.6z
			 M309.1,91.3c-0.1,0-0.1-0.1-0.2-0.1s-0.1,0-0.2,0.1c-0.1,0-0.1,0.1-0.1,0.2c0,0.2-0.1,0.3-0.2,0.4s-0.2,0.2-0.4,0.2h0
			c-0.2,0-0.3-0.1-0.4-0.2s-0.2-0.2-0.2-0.4v-1.2c0-0.2,0.1-0.3,0.2-0.4s0.2-0.2,0.4-0.2h0.1c0.2,0,0.3,0.1,0.4,0.2s0.2,0.3,0.2,0.4
			s0,0.2,0.1,0.2s0.1,0.1,0.2,0.1s0.1,0,0.2-0.1c0.1,0,0.1-0.1,0.1-0.2s0-0.3-0.1-0.4s-0.1-0.2-0.2-0.3c-0.1-0.1-0.2-0.2-0.3-0.2
			c-0.1-0.1-0.3-0.1-0.4-0.1H308c-0.1,0-0.3,0-0.4,0.1s-0.3,0.1-0.3,0.2c-0.1,0.1-0.2,0.2-0.2,0.3c-0.1,0.1-0.1,0.3-0.1,0.4v1.2
			c0,0.2,0,0.3,0.1,0.4s0.1,0.2,0.2,0.3c0.1,0.1,0.2,0.2,0.3,0.2c0.1,0.1,0.3,0.1,0.4,0.1h0.1c0.1,0,0.3,0,0.4-0.1s0.2-0.1,0.3-0.2
			c0.1-0.1,0.2-0.2,0.2-0.3c0.1-0.1,0.1-0.3,0.1-0.4C309.2,91.4,309.1,91.3,309.1,91.3L309.1,91.3z M312.5,90.3c0-0.1,0-0.3-0.1-0.4
			s-0.1-0.2-0.2-0.3c-0.1-0.1-0.2-0.2-0.3-0.2c-0.1-0.1-0.3-0.1-0.4-0.1h-0.1c-0.1,0-0.2,0-0.3,0.1c-0.1,0-0.2,0.1-0.2,0.2v-1.4
			c0-0.1,0-0.1-0.1-0.2c-0.1,0-0.1-0.1-0.2-0.1s-0.1,0-0.2,0.1c-0.1,0-0.1,0.1-0.1,0.2v4.2c0,0.1,0,0.1,0.1,0.2
			c0.1,0,0.1,0.1,0.2,0.1s0.1,0,0.2-0.1c0.1,0,0.1-0.1,0.1-0.2v-2c0-0.1,0-0.2,0.1-0.2c0-0.1,0.1-0.1,0.1-0.2
			c0.1-0.1,0.1-0.1,0.2-0.1s0.1,0,0.2,0s0.1,0,0.2,0s0.1,0.1,0.2,0.1s0.1,0.1,0.1,0.2s0,0.2,0,0.3v2c0,0.1,0,0.1,0.1,0.2
			c0.1,0,0.1,0.1,0.2,0.1s0.1,0,0.2-0.1c0.1,0,0.1-0.1,0.1-0.2v-2.2H312.5z M315.9,90.3c0-0.2,0-0.3-0.1-0.4s-0.1-0.2-0.2-0.3
			c-0.1-0.1-0.2-0.2-0.3-0.2c-0.1-0.1-0.3-0.1-0.4-0.1h-0.1c-0.1,0-0.3,0-0.4,0.1s-0.2,0.1-0.4,0.2c-0.1,0.1-0.2,0.2-0.2,0.3
			c-0.1,0.1-0.1,0.3-0.1,0.4v1.2c0,0.2,0,0.3,0.1,0.4s0.1,0.2,0.2,0.3c0.1,0.1,0.2,0.2,0.4,0.2c0.1,0.1,0.3,0.1,0.4,0.1h0.1
			c0.2,0,0.4-0.1,0.6-0.2s0.3-0.3,0.4-0.5v-0.1c0-0.1,0-0.1-0.1-0.2c-0.1,0-0.1-0.1-0.2-0.1h-0.1l-0.1,0.1c0,0.1-0.1,0.2-0.2,0.2
			c-0.1,0.1-0.2,0.1-0.3,0.1h-0.1c-0.2,0-0.3-0.1-0.4-0.2s-0.2-0.2-0.2-0.4v-0.3h1.5c0.1,0,0.1,0,0.2-0.1c0,0,0.1-0.1,0.1-0.2
			L315.9,90.3L315.9,90.3z M315.4,90.6h-1.2v-0.3c0-0.2,0.1-0.3,0.2-0.4s0.3-0.2,0.4-0.2h0.1c0.1,0,0.3,0.1,0.4,0.2s0.2,0.3,0.2,0.4
			v0.3H315.4z M321.8,90.2c0-0.1,0-0.1-0.1-0.2s-0.1-0.1-0.2-0.1h-1c-0.1,0-0.1,0-0.2,0.1c0,0.1-0.1,0.1-0.1,0.2s0,0.1,0.1,0.2
			c0,0.1,0.1,0.1,0.2,0.1h0.7v0.8c0,0.1,0,0.2-0.1,0.3c0,0.1-0.1,0.2-0.2,0.2c-0.1,0.1-0.1,0.1-0.2,0.2c-0.1,0-0.2,0.1-0.3,0.1h-0.1
			c-0.1,0-0.2,0-0.3-0.1c-0.1,0-0.2-0.1-0.2-0.2c-0.1-0.1-0.1-0.1-0.2-0.2c0-0.1-0.1-0.2-0.1-0.3v-2.2c0-0.1,0-0.2,0.1-0.3
			c0-0.1,0.1-0.2,0.2-0.2c0.1-0.1,0.2-0.1,0.2-0.2c0.1,0,0.2-0.1,0.3-0.1h0.1c0.2,0,0.4,0.1,0.5,0.2s0.2,0.3,0.2,0.5
			c0,0.1,0,0.1,0.1,0.2c0,0,0.1,0.1,0.2,0.1s0.1,0,0.2-0.1c0.1,0,0.1-0.1,0.1-0.2l0,0c0-0.2-0.1-0.3-0.1-0.4
			c-0.1-0.1-0.2-0.2-0.3-0.3c-0.1-0.1-0.2-0.2-0.4-0.2c-0.1-0.1-0.3-0.1-0.5-0.1h-0.1c-0.2,0-0.3,0-0.5,0.1s-0.3,0.2-0.4,0.3
			c-0.1,0.1-0.2,0.3-0.3,0.4c-0.1,0.2-0.1,0.3-0.1,0.5v2.2c0,0.2,0,0.3,0.1,0.5s0.2,0.3,0.3,0.4c0.1,0.1,0.2,0.2,0.4,0.3
			c0.2,0.1,0.3,0.1,0.5,0.1h0.1c0.2,0,0.3,0,0.5-0.1s0.3-0.2,0.4-0.3c0.1-0.1,0.2-0.2,0.3-0.4c0.1-0.2,0.1-0.3,0.1-0.5L321.8,90.2
			L321.8,90.2z M325.2,90.3c0-0.2,0-0.3-0.1-0.4s-0.1-0.2-0.2-0.3c-0.1-0.1-0.2-0.2-0.4-0.2c-0.1-0.1-0.3-0.1-0.4-0.1H324
			c-0.1,0-0.3,0-0.4,0.1s-0.2,0.1-0.3,0.2c-0.1,0.1-0.2,0.2-0.2,0.3c-0.1,0.1-0.1,0.3-0.1,0.4v1.2c0,0.2,0,0.3,0.1,0.4
			s0.1,0.2,0.2,0.3c0.1,0.1,0.2,0.2,0.3,0.2c0.1,0.1,0.3,0.1,0.4,0.1h0.1c0.2,0,0.4-0.1,0.6-0.2s0.3-0.3,0.4-0.5v-0.1
			c0-0.1,0-0.1-0.1-0.2c-0.1,0-0.1-0.1-0.2-0.1h-0.1l-0.1,0.1c0,0.1-0.1,0.2-0.2,0.2c-0.1,0.1-0.2,0.1-0.3,0.1H324
			c-0.2,0-0.3-0.1-0.4-0.2s-0.2-0.2-0.2-0.4v-0.3h1.5c0.1,0,0.1,0,0.2-0.1c0,0,0.1-0.1,0.1-0.2L325.2,90.3L325.2,90.3z M324.7,90.6
			h-1.2v-0.3c0-0.2,0.1-0.3,0.2-0.4s0.2-0.2,0.4-0.2h0.1c0.1,0,0.3,0.1,0.4,0.2s0.2,0.3,0.2,0.4v0.3H324.7z M328.6,91.6
			c0-0.2,0-0.4-0.1-0.5s-0.2-0.2-0.3-0.3c-0.1-0.1-0.3-0.1-0.4-0.2c-0.2,0-0.3-0.1-0.4-0.1s-0.2-0.1-0.3-0.1
			c-0.1-0.1-0.1-0.1-0.1-0.3l0,0c0-0.1,0.1-0.2,0.2-0.3c0.1-0.1,0.2-0.1,0.4-0.1l0,0c0.1,0,0.3,0,0.4,0.1c0.1,0,0.2,0.1,0.2,0.1
			c0.1,0,0.1,0,0.1,0c0.1,0,0.1,0,0.2-0.1c0-0.1,0.1-0.1,0.1-0.2s0-0.1-0.1-0.2l-0.1-0.1c-0.1,0-0.1-0.1-0.2-0.1s-0.2-0.1-0.3-0.1
			c-0.1,0-0.2,0-0.3,0l0,0c-0.1,0-0.2,0-0.4,0c-0.1,0-0.2,0.1-0.4,0.1c-0.1,0.1-0.2,0.2-0.3,0.3c-0.1,0.1-0.1,0.2-0.1,0.4
			c0,0.2,0,0.4,0.1,0.5s0.2,0.2,0.3,0.3c0.1,0.1,0.3,0.1,0.4,0.1s0.3,0.1,0.4,0.1s0.2,0.1,0.3,0.2c0.1,0.1,0.1,0.2,0.1,0.3l0,0
			c0,0.1-0.1,0.2-0.2,0.3c-0.1,0.1-0.3,0.1-0.5,0.1l0,0c-0.1,0-0.3,0-0.4-0.1s-0.2-0.2-0.3-0.3l-0.1-0.1h-0.1c-0.1,0-0.1,0-0.2,0.1
			c-0.1,0-0.1,0.1-0.1,0.2v0.1c0.1,0.1,0.1,0.2,0.2,0.3c0.1,0.1,0.2,0.2,0.3,0.2c0.1,0.1,0.2,0.1,0.3,0.1c0.1,0,0.2,0,0.3,0l0,0
			c0.1,0,0.3,0,0.4-0.1c0.1,0,0.3-0.1,0.4-0.2s0.2-0.2,0.3-0.3C328.6,91.9,328.6,91.8,328.6,91.6L328.6,91.6L328.6,91.6z
			 M331.9,90.3c0-0.2,0-0.3-0.1-0.4s-0.1-0.2-0.2-0.3c-0.1-0.1-0.2-0.2-0.3-0.2c-0.1-0.1-0.3-0.1-0.4-0.1h-0.1c-0.1,0-0.3,0-0.4,0.1
			s-0.2,0.1-0.4,0.2c-0.1,0.1-0.2,0.2-0.2,0.3c-0.1,0.1-0.1,0.3-0.1,0.4v1.2c0,0.2,0,0.3,0.1,0.4s0.1,0.2,0.2,0.3
			c0.1,0.1,0.2,0.2,0.4,0.2c0.1,0.1,0.3,0.1,0.4,0.1h0.1c0.2,0,0.4-0.1,0.6-0.2s0.3-0.3,0.4-0.5v-0.1c0-0.1,0-0.1-0.1-0.2
			c-0.1,0-0.1-0.1-0.2-0.1h-0.1l-0.1,0.1c0,0.1-0.1,0.2-0.2,0.2c-0.1,0.1-0.2,0.1-0.3,0.1h-0.1c-0.2,0-0.3-0.1-0.4-0.2
			s-0.2-0.2-0.2-0.4v-0.3h1.5c0.1,0,0.1,0,0.2-0.1c0,0,0.1-0.1,0.1-0.2L331.9,90.3L331.9,90.3z M331.4,90.6h-1.2v-0.3
			c0-0.2,0.1-0.3,0.2-0.4s0.3-0.2,0.4-0.2h0.1c0.1,0,0.3,0.1,0.4,0.2s0.2,0.3,0.2,0.4v0.3H331.4z M334.1,92.1c0-0.1-0.1-0.1-0.2-0.1
			s-0.2,0-0.3-0.1c-0.1-0.1-0.1-0.2-0.1-0.3V88c0-0.1,0-0.1-0.1-0.2c-0.1,0-0.1-0.1-0.2-0.1s-0.1,0-0.2,0.1c-0.1,0-0.1,0.1-0.1,0.2
			v3.6c0,0.1,0,0.2,0.1,0.3c0,0.1,0.1,0.2,0.2,0.3c0.1,0.1,0.2,0.1,0.3,0.2c0.1,0,0.2,0.1,0.3,0.1c0.1,0,0.2,0,0.2-0.1
			s0.1-0.1,0.1-0.2C334.1,92.2,334.1,92.2,334.1,92.1L334.1,92.1z M336.2,92.1c0-0.1-0.1-0.1-0.2-0.1s-0.2,0-0.3-0.1
			c-0.1-0.1-0.1-0.2-0.1-0.3V88c0-0.1,0-0.1-0.1-0.2c-0.1,0-0.1-0.1-0.2-0.1s-0.1,0-0.2,0.1c-0.1,0-0.1,0.1-0.1,0.2v3.6
			c0,0.1,0,0.2,0.1,0.3c0,0.1,0.1,0.2,0.2,0.3c0.1,0.1,0.2,0.1,0.3,0.2c0.1,0,0.2,0.1,0.3,0.1c0.1,0,0.2,0,0.2-0.1s0.1-0.1,0.1-0.2
			C336.3,92.2,336.2,92.2,336.2,92.1L336.2,92.1z M339.5,91.6c0-0.2,0-0.4-0.1-0.5s-0.2-0.2-0.3-0.3c-0.1-0.1-0.3-0.1-0.4-0.2
			c-0.1,0-0.3-0.1-0.4-0.1s-0.2-0.1-0.3-0.1c-0.1-0.1-0.1-0.1-0.1-0.3l0,0c0-0.1,0.1-0.2,0.2-0.3c0.1-0.1,0.2-0.1,0.4-0.1l0,0
			c0.1,0,0.3,0,0.4,0.1c0.1,0,0.2,0.1,0.2,0.1h0.1c0.1,0,0.1,0,0.2-0.1c0-0.1,0.1-0.1,0.1-0.2s0-0.1-0.1-0.2l-0.1-0.1
			c-0.1,0-0.1-0.1-0.2-0.1s-0.2-0.1-0.3-0.1c-0.1,0-0.2,0-0.3,0l0,0c-0.1,0-0.2,0-0.4,0c-0.1,0-0.2,0.1-0.4,0.1
			c-0.1,0.1-0.2,0.2-0.3,0.3c-0.1,0.1-0.1,0.2-0.1,0.4c0,0.2,0,0.4,0.1,0.5s0.2,0.2,0.3,0.3c0.1,0.1,0.3,0.1,0.4,0.1
			c0.2,0,0.3,0.1,0.4,0.1s0.2,0.1,0.3,0.2c0.1,0.1,0.1,0.2,0.1,0.3l0,0c0,0.1-0.1,0.2-0.2,0.3c-0.1,0.1-0.3,0.1-0.5,0.1l0,0
			c-0.1,0-0.3,0-0.4-0.1s-0.2-0.2-0.3-0.3l-0.1-0.1h-0.1c-0.1,0-0.1,0-0.2,0.1c-0.1,0-0.1,0.1-0.1,0.2v0.1c0.1,0.1,0.1,0.2,0.2,0.3
			c0.1,0.1,0.2,0.2,0.3,0.2c0.1,0.1,0.2,0.1,0.3,0.1c0.1,0,0.2,0,0.3,0l0,0c0.1,0,0.3,0,0.4-0.1c0.1,0,0.3-0.1,0.4-0.2
			s0.2-0.2,0.3-0.3C339.5,91.9,339.5,91.8,339.5,91.6L339.5,91.6L339.5,91.6z M342.7,91.3c-0.1,0-0.1-0.1-0.2-0.1s-0.1,0-0.2,0.1
			c0,0-0.1,0.1-0.1,0.2c0,0.2-0.1,0.3-0.2,0.4s-0.2,0.2-0.4,0.2h-0.1c-0.2,0-0.3-0.1-0.4-0.2s-0.2-0.2-0.2-0.4v-1.2
			c0-0.2,0.1-0.3,0.2-0.4s0.2-0.2,0.4-0.2h0.1c0.2,0,0.3,0.1,0.4,0.2s0.2,0.3,0.2,0.4s0,0.2,0.1,0.2s0.1,0.1,0.2,0.1s0.1,0,0.2-0.1
			c0.1,0,0.1-0.1,0.1-0.2s0-0.3-0.1-0.4s-0.1-0.2-0.2-0.3c-0.1-0.1-0.2-0.2-0.3-0.2c-0.1-0.1-0.3-0.1-0.4-0.1h-0.1
			c-0.1,0-0.3,0-0.4,0.1s-0.2,0.1-0.3,0.2c-0.1,0.1-0.2,0.2-0.2,0.3c-0.1,0.1-0.1,0.3-0.1,0.4v1.2c0,0.2,0,0.3,0.1,0.4
			s0.1,0.2,0.2,0.3c0.1,0.1,0.2,0.2,0.4,0.2c0.1,0.1,0.3,0.1,0.4,0.1h0.1c0.1,0,0.3,0,0.4-0.1s0.2-0.1,0.3-0.2
			c0.1-0.1,0.2-0.2,0.2-0.3c0.1-0.1,0.1-0.3,0.1-0.4C342.8,91.4,342.8,91.3,342.7,91.3L342.7,91.3z M346.1,90.3c0-0.1,0-0.3-0.1-0.4
			s-0.1-0.2-0.2-0.3c-0.1-0.1-0.2-0.2-0.3-0.2c-0.1-0.1-0.3-0.1-0.4-0.1H345c-0.1,0-0.2,0-0.3,0.1c-0.1,0-0.2,0.1-0.3,0.2v-1.4
			c0-0.1,0-0.1-0.1-0.2c-0.1,0-0.1-0.1-0.2-0.1s-0.1,0-0.2,0.1c-0.1,0-0.1,0.1-0.1,0.2v4.2c0,0.1,0,0.1,0.1,0.2
			c0.1,0,0.1,0.1,0.2,0.1s0.1,0,0.2-0.1c0.1,0,0.1-0.1,0.1-0.2v-2c0-0.1,0-0.2,0.1-0.2c0-0.1,0.1-0.1,0.1-0.2
			c0.1-0.1,0.1-0.1,0.2-0.1s0.2,0,0.2,0c0.1,0,0.1,0,0.2,0s0.1,0.1,0.2,0.1s0.1,0.1,0.1,0.2s0,0.2,0,0.3v2c0,0.1,0,0.1,0.1,0.2
			c0.1,0,0.1,0.1,0.2,0.1s0.1,0,0.2-0.1c0.1,0,0.1-0.1,0.1-0.2L346.1,90.3L346.1,90.3z M349.7,92.1c0,0-0.1-0.1-0.2-0.1
			s-0.2-0.1-0.2-0.2v-1.6c0-0.1,0-0.3-0.1-0.4s-0.1-0.2-0.2-0.3c-0.1-0.1-0.2-0.2-0.3-0.2c-0.1-0.1-0.3-0.1-0.4-0.1l0,0
			c-0.1,0-0.2,0-0.3,0c-0.1,0-0.2,0.1-0.3,0.1c-0.1,0.1-0.2,0.1-0.2,0.2c-0.1,0.1-0.1,0.2-0.2,0.3v0.1c0,0.1,0,0.1,0.1,0.2
			c0.1,0,0.1,0.1,0.2,0.1h0.1l0.1-0.1c0.1-0.1,0.1-0.2,0.2-0.3c0.1-0.1,0.2-0.1,0.3-0.1l0,0c0.1,0,0.3,0,0.4,0.1s0.2,0.2,0.2,0.4
			c0,0,0,0,0,0.1l0,0c0,0-0.1,0.1-0.2,0.1s-0.2,0-0.3,0.1c-0.1,0-0.3,0.1-0.4,0.1s-0.3,0.1-0.4,0.2s-0.2,0.2-0.3,0.3
			c-0.1,0.1-0.1,0.3-0.1,0.4v0.1c0,0.2,0,0.3,0.1,0.4s0.1,0.2,0.2,0.3c0.1,0.1,0.2,0.1,0.3,0.2c0.1,0,0.3,0.1,0.4,0.1h0.1
			c0.3,0,0.5-0.1,0.7-0.3c0,0.1,0.1,0.1,0.2,0.2c0.1,0,0.2,0.1,0.3,0.1c0,0,0,0,0.1,0s0.1,0,0.2-0.1c0-0.1,0.1-0.1,0.1-0.2
			C349.8,92.2,349.7,92.2,349.7,92.1L349.7,92.1z M348.9,91.5c0,0.2-0.1,0.3-0.2,0.4s-0.2,0.2-0.4,0.2h-0.1c-0.2,0-0.3,0-0.4-0.1
			s-0.2-0.2-0.2-0.3v-0.1c0-0.1,0-0.2,0.1-0.3c0.1-0.1,0.2-0.1,0.3-0.1c0.1,0,0.3-0.1,0.4-0.1s0.3,0,0.4-0.1v0.5H348.9z M352,87.9
			c0-0.1-0.1-0.1-0.2-0.1s-0.2,0-0.3,0.1c-0.1,0-0.2,0.1-0.3,0.2c-0.1,0.1-0.1,0.2-0.2,0.3c0,0.1-0.1,0.2-0.1,0.4v0.5h-0.1
			c-0.1,0-0.2,0-0.2,0.1s-0.1,0.1-0.1,0.2s0,0.1,0.1,0.2c0,0.1,0.1,0.1,0.2,0.1h0.1v2.5c0,0.1,0,0.1,0.1,0.2c0.1,0,0.1,0.1,0.2,0.1
			s0.1,0,0.2-0.1c0.1,0,0.1-0.1,0.1-0.2v-2.5h0.3c0.1,0,0.2,0,0.2-0.1s0.1-0.1,0.1-0.2s0-0.1-0.1-0.2c0-0.1-0.1-0.1-0.2-0.1h-0.3
			v-0.5c0-0.1,0-0.2,0.1-0.3c0.1-0.1,0.2-0.1,0.3-0.1c0.1,0,0.1,0,0.2-0.1c0-0.1,0.1-0.1,0.1-0.2C352,88,352,87.9,352,87.9L352,87.9
			z M354.2,92.1c0-0.1-0.1-0.1-0.2-0.1s-0.2,0-0.3-0.1c-0.1-0.1-0.1-0.2-0.1-0.3v-1.9h0.4c0.1,0,0.1,0,0.2-0.1
			c0-0.1,0.1-0.1,0.1-0.2s0-0.1-0.1-0.2c0-0.1-0.1-0.1-0.2-0.1h-0.4v-1.2c0-0.1,0-0.1-0.1-0.2c-0.1,0-0.1-0.1-0.2-0.1
			s-0.1,0-0.2,0.1c-0.1,0-0.1,0.1-0.1,0.2v1.2h-0.2c-0.1,0-0.2,0-0.2,0.1s-0.1,0.1-0.1,0.2s0,0.1,0.1,0.2c0,0.1,0.1,0.1,0.2,0.1h0.2
			v1.9c0,0.1,0,0.2,0.1,0.3c0,0.1,0.1,0.2,0.2,0.3c0.1,0.1,0.2,0.1,0.3,0.2c0.1,0,0.2,0.1,0.3,0.1c0.1,0,0.2,0,0.2-0.1
			s0.1-0.1,0.1-0.2C354.2,92.2,354.2,92.2,354.2,92.1L354.2,92.1z"/>
	</g>
	<path style="fill:none;" d="M95.1,38c8.9,2.7,15.6,6.6,19.5,9.4c-0.1-0.1-0.3-0.2-0.4-0.3C110.2,44.3,103.7,40.5,95.1,38
		c-2.5-0.7-4.9-1.3-7.2-1.7C90.2,36.8,92.6,37.3,95.1,38z"/>
	<path style="fill:none;" d="M87.7,36.3C87.6,36.3,87.6,36.3,87.7,36.3C87.6,36.3,87.6,36.3,87.7,36.3
		C87.6,36.3,87.7,36.3,87.7,36.3C87.7,36.3,87.7,36.3,87.7,36.3z"/>
	<path style="fill:none;" d="M75.7,35.2c-1.6,0-3.2,0.1-4.7,0.2c-4.7,0.4-9.5,1.3-14.3,2.7c-5.5,1.6-11.2,4.5-16.1,7.3
		c4.9-2.9,10.7-5.7,16.2-7.3c7.7-2.3,15.2-3.2,22.8-2.8l0,0C78.2,35.2,77,35.2,75.7,35.2z"/>
	<path style="fill:#414042;" d="M86.3,21.6c5.8,1.6,16.7,5.3,25.2,13.5c3.1,3,5.4,5.8,7.5,8.6c1.1,1.3,2.2,2.6,3,4.1
		c0.3,0.3,0.5,0.6,0.7,0.9c-3-4.4-6-8.7-11-13.5c-8.5-8.2-19.4-11.9-25.2-13.5c-2.4-0.7-4.7-1.3-7-1.7C81.7,20.4,84,20.9,86.3,21.6z
		"/>
	<path style="fill:#414042;" d="M45.2,31.1c1.7-0.6,3.5-1.2,5.5-1.7c0.8-0.2,1.6-0.4,2.4-0.6c1.2-0.3,2.4-0.6,3.5-0.8
		c1.5-0.3,3-0.6,4.2-0.8c0.3-0.1,0.6-0.1,0.9-0.1c0.3,0,0.6-0.1,0.9-0.1c1.7-0.2,3.8-0.3,6-0.4l0,0c0.7,0,1.4,0,2.1-0.1
		c2.2,0,4.2,0,5.9,0l0.8-6.9c-32.8-5.6-56.9,11.3-57,11.4c1.3,3.7,2.5,7.3,3.8,10.9c0,0,0,0,0,0c0,0,0,0,0,0
		C30.4,37.2,39.3,33.2,45.2,31.1z"/>
	<path style="fill:#414042;" d="M125.8,53.2L125.8,53.2C125.8,53.2,125.8,53.2,125.8,53.2C125.8,53.2,125.8,53.2,125.8,53.2z"/>
	<path style="fill:#C72030;" d="M40.5,45.4c4.9-2.9,10.7-5.7,16.1-7.3c4.8-1.4,9.6-2.3,14.3-2.7c-1.1,0.1-2.3,0.2-3.4,0.4l1.1-9.3
		c-2.2,0.1-4.3,0.2-6,0.4c-0.3,0-0.6,0.1-0.9,0.1c-0.3,0-0.6,0.1-0.9,0.1c-1.3,0.2-2.7,0.5-4.2,0.8c-1.1,0.2-2.3,0.5-3.5,0.8
		c-0.8,0.2-1.6,0.4-2.4,0.6c-2,0.5-3.8,1.1-5.5,1.7c-5.9,2.1-14.8,6.1-21,10.7c0,0,0,0,0,0c1.3,3.9,2.7,7.8,4,11.7c0,0,0,0,0.1,0
		c0,0,0,0,0,0C30.3,51.9,34.9,48.7,40.5,45.4z"/>
	<path style="fill:#C72030;" d="M75.7,35.2c-1.6,0-3.2,0.1-4.7,0.2C72.5,35.3,74.1,35.2,75.7,35.2z"/>
	<path style="fill:#FFCC32;" d="M78.6,43.3l0.9-8c-7.6-0.4-15.1,0.6-22.8,2.8c-5.5,1.6-11.2,4.4-16.2,7.3c-5.6,3.2-10.2,6.5-12.2,8
		c0,0,0,0,0,0c1.2,3.4,2.4,6.9,3.6,10.3C35.4,60.5,53.5,45.8,78.6,43.3z"/>
	<path style="fill:#FFCC32;" d="M124.9,57.1C124.9,57.1,124.9,57.1,124.9,57.1C124.9,57.1,124.9,57.1,124.9,57.1L124.9,57.1z"/>
	<path style="fill:#FFCC32;" d="M95.1,38c-2.4-0.7-4.8-1.3-7.2-1.7c0,0-0.1,0-0.1,0c0,0-0.1,0-0.1,0c2.4,0.4,4.8,1,7.2,1.7
		c11.6,3.5,19.5,9.1,22.4,11.5c-0.6-0.6-1.5-1.3-2.6-2.1C110.6,44.6,104,40.7,95.1,38z"/>
	
		<linearGradient id="SVGID_1_" gradientUnits="userSpaceOnUse" x1="478.2102" y1="-169.2274" x2="496.1938" y2="-164.3815" gradientTransform="matrix(-1.8638 -0.7249 -0.651 1.6737 899.9238 655.0499)">
		<stop  offset="0" style="stop-color:#6D5F27"/>
		<stop  offset="8.838919e-02" style="stop-color:#6D5F28;stop-opacity:0.9116"/>
		<stop  offset="0.2164" style="stop-color:#6C5F2D;stop-opacity:0.7836"/>
		<stop  offset="0.3685" style="stop-color:#6A5F36;stop-opacity:0.6315"/>
		<stop  offset="0.5392" style="stop-color:#655E41;stop-opacity:0.4608"/>
		<stop  offset="0.7252" style="stop-color:#5D5949;stop-opacity:0.2748"/>
		<stop  offset="0.9213" style="stop-color:#4B4A47;stop-opacity:7.866341e-02"/>
		<stop  offset="1" style="stop-color:#414042;stop-opacity:0"/>
	</linearGradient>
	<path style="fill:url(#SVGID_1_);" d="M77.4,19.6L77.4,19.6c0.7,0.1,1.4,0.2,2.1,0.4C78.8,19.8,78.1,19.7,77.4,19.6z"/>
	
		<linearGradient id="SVGID_2_" gradientUnits="userSpaceOnUse" x1="476.0157" y1="-161.0834" x2="493.9993" y2="-156.2375" gradientTransform="matrix(-1.8638 -0.7249 -0.651 1.6737 899.9238 655.0499)">
		<stop  offset="0" style="stop-color:#6D5F27"/>
		<stop  offset="8.838919e-02" style="stop-color:#6D5F28;stop-opacity:0.9116"/>
		<stop  offset="0.2164" style="stop-color:#6C5F2D;stop-opacity:0.7836"/>
		<stop  offset="0.3685" style="stop-color:#6A5F36;stop-opacity:0.6315"/>
		<stop  offset="0.5392" style="stop-color:#655E41;stop-opacity:0.4608"/>
		<stop  offset="0.7252" style="stop-color:#5D5949;stop-opacity:0.2748"/>
		<stop  offset="0.9213" style="stop-color:#4B4A47;stop-opacity:7.866341e-02"/>
		<stop  offset="1" style="stop-color:#414042;stop-opacity:0"/>
	</linearGradient>
	<path style="fill:url(#SVGID_2_);" d="M117.6,43.2C117.6,43.1,117.6,43.1,117.6,43.2c-3.5-3.6-6.4-5.5-8.7-6.7
		C111.1,37.7,114,39.6,117.6,43.2z"/>
	<path style="fill:#414042;" d="M76.6,26.4c0.6,0,1.1,0,1.6,0.1c0.4,0,0.9,0.1,1.5,0.1c0.9,0.1,1.8,0.3,2.9,0.4
		c0.7,0.1,1.4,0.3,2.2,0.4s1.5,0.3,2.2,0.4c2.6,0.5,5,1.1,6.4,1.6c5.3,1.7,11.3,4.5,13.8,6c0.5,0.3,1.1,0.6,1.7,0.9
		c2.3,1.3,5.2,3.1,8.7,6.7c0.2-0.2,0.5-0.3,0.7-0.1c0.2,0.2,0.4,0.4,0.6,0.7c-2-2.8-4.4-5.6-7.5-8.6c-8.5-8.2-19.4-11.9-25.2-13.5
		c-2.3-0.7-4.6-1.2-6.8-1.7c-0.7-0.1-1.4-0.3-2.1-0.4L76.6,26.4z"/>
	
		<linearGradient id="SVGID_3_" gradientUnits="userSpaceOnUse" x1="476.8929" y1="-164.3389" x2="494.8766" y2="-159.493" gradientTransform="matrix(-1.8638 -0.7249 -0.651 1.6737 899.9238 655.0499)">
		<stop  offset="0" style="stop-color:#6D5F27"/>
		<stop  offset="8.838919e-02" style="stop-color:#6D5F28;stop-opacity:0.9116"/>
		<stop  offset="0.2164" style="stop-color:#6C5F2D;stop-opacity:0.7836"/>
		<stop  offset="0.3685" style="stop-color:#6A5F36;stop-opacity:0.6315"/>
		<stop  offset="0.5392" style="stop-color:#655E41;stop-opacity:0.4608"/>
		<stop  offset="0.7252" style="stop-color:#5D5949;stop-opacity:0.2748"/>
		<stop  offset="0.9213" style="stop-color:#4B4A47;stop-opacity:7.866341e-02"/>
		<stop  offset="1" style="stop-color:#414042;stop-opacity:0"/>
	</linearGradient>
	<path style="fill:url(#SVGID_3_);" d="M76.6,26.4c0.6,0,1.1,0,1.6,0.1c0.4,0,0.9,0.1,1.5,0.1c0.9,0.1,1.8,0.3,2.9,0.4
		c0.7,0.1,1.4,0.3,2.2,0.4s1.5,0.3,2.2,0.4c2.6,0.5,5,1.1,6.4,1.6c5.3,1.7,11.3,4.5,13.8,6c0.5,0.3,1.1,0.6,1.7,0.9
		c2.3,1.3,5.2,3.1,8.7,6.7c0.2-0.2,0.5-0.3,0.7-0.1c0.2,0.2,0.4,0.4,0.6,0.7c-2-2.8-4.4-5.6-7.5-8.6c-8.5-8.2-19.4-11.9-25.2-13.5
		c-2.3-0.7-4.6-1.2-6.8-1.7c-0.7-0.1-1.4-0.3-2.1-0.4L76.6,26.4z"/>
	<path style="fill:#C72030;" d="M82.6,27.1c0.7,0.1,1.4,0.3,2.2,0.4C84,27.3,83.3,27.2,82.6,27.1z"/>
	
		<linearGradient id="SVGID_4_" gradientUnits="userSpaceOnUse" x1="477.2349" y1="-165.608" x2="495.2185" y2="-160.7621" gradientTransform="matrix(-1.8638 -0.7249 -0.651 1.6737 899.9238 655.0499)">
		<stop  offset="0" style="stop-color:#6D5F27"/>
		<stop  offset="8.838919e-02" style="stop-color:#6D5F28;stop-opacity:0.9116"/>
		<stop  offset="0.2164" style="stop-color:#6C5F2D;stop-opacity:0.7836"/>
		<stop  offset="0.3685" style="stop-color:#6A5F36;stop-opacity:0.6315"/>
		<stop  offset="0.5392" style="stop-color:#655E41;stop-opacity:0.4608"/>
		<stop  offset="0.7252" style="stop-color:#5D5949;stop-opacity:0.2748"/>
		<stop  offset="0.9213" style="stop-color:#4B4A47;stop-opacity:7.866341e-02"/>
		<stop  offset="1" style="stop-color:#414042;stop-opacity:0"/>
	</linearGradient>
	<path style="fill:url(#SVGID_4_);" d="M82.6,27.1c0.7,0.1,1.4,0.3,2.2,0.4C84,27.3,83.3,27.2,82.6,27.1z"/>
	<path style="fill:#C72030;" d="M84.8,27.5c0.7,0.1,1.5,0.3,2.2,0.4C86.3,27.8,85.5,27.6,84.8,27.5z"/>
	
		<linearGradient id="SVGID_5_" gradientUnits="userSpaceOnUse" x1="477.2169" y1="-165.5413" x2="495.2005" y2="-160.6954" gradientTransform="matrix(-1.8638 -0.7249 -0.651 1.6737 899.9238 655.0499)">
		<stop  offset="0" style="stop-color:#6D5F27"/>
		<stop  offset="8.838919e-02" style="stop-color:#6D5F28;stop-opacity:0.9116"/>
		<stop  offset="0.2164" style="stop-color:#6C5F2D;stop-opacity:0.7836"/>
		<stop  offset="0.3685" style="stop-color:#6A5F36;stop-opacity:0.6315"/>
		<stop  offset="0.5392" style="stop-color:#655E41;stop-opacity:0.4608"/>
		<stop  offset="0.7252" style="stop-color:#5D5949;stop-opacity:0.2748"/>
		<stop  offset="0.9213" style="stop-color:#4B4A47;stop-opacity:7.866341e-02"/>
		<stop  offset="1" style="stop-color:#414042;stop-opacity:0"/>
	</linearGradient>
	<path style="fill:url(#SVGID_5_);" d="M84.8,27.5c0.7,0.1,1.5,0.3,2.2,0.4C86.3,27.8,85.5,27.6,84.8,27.5z"/>
	<path style="fill:#C72030;" d="M82.6,27.1c-1.1-0.2-2.1-0.3-2.9-0.4C80.6,26.8,81.5,26.9,82.6,27.1z"/>
	
		<linearGradient id="SVGID_6_" gradientUnits="userSpaceOnUse" x1="477.2459" y1="-165.6487" x2="495.2295" y2="-160.8028" gradientTransform="matrix(-1.8638 -0.7249 -0.651 1.6737 899.9238 655.0499)">
		<stop  offset="0" style="stop-color:#6D5F27"/>
		<stop  offset="8.838919e-02" style="stop-color:#6D5F28;stop-opacity:0.9116"/>
		<stop  offset="0.2164" style="stop-color:#6C5F2D;stop-opacity:0.7836"/>
		<stop  offset="0.3685" style="stop-color:#6A5F36;stop-opacity:0.6315"/>
		<stop  offset="0.5392" style="stop-color:#655E41;stop-opacity:0.4608"/>
		<stop  offset="0.7252" style="stop-color:#5D5949;stop-opacity:0.2748"/>
		<stop  offset="0.9213" style="stop-color:#4B4A47;stop-opacity:7.866341e-02"/>
		<stop  offset="1" style="stop-color:#414042;stop-opacity:0"/>
	</linearGradient>
	<path style="fill:url(#SVGID_6_);" d="M82.6,27.1c-1.1-0.2-2.1-0.3-2.9-0.4C80.6,26.8,81.5,26.9,82.6,27.1z"/>
	
		<linearGradient id="SVGID_7_" gradientUnits="userSpaceOnUse" x1="479.6821" y1="-160.1462" x2="497.6638" y2="-155.3008" gradientTransform="matrix(-1.8638 -0.7249 -0.651 1.6737 899.9238 655.0499)">
		<stop  offset="0" style="stop-color:#6D5F27"/>
		<stop  offset="0.1408" style="stop-color:#725E27;stop-opacity:0.8592"/>
		<stop  offset="0.3444" style="stop-color:#805B29;stop-opacity:0.6556"/>
		<stop  offset="0.5864" style="stop-color:#95532B;stop-opacity:0.4136"/>
		<stop  offset="0.8555" style="stop-color:#B43C2E;stop-opacity:0.1445"/>
		<stop  offset="1" style="stop-color:#C72030;stop-opacity:0"/>
	</linearGradient>
	<path style="fill:url(#SVGID_7_);" d="M87.7,36.3C87.6,36.3,87.6,36.3,87.7,36.3L87.7,36.3C87.6,36.3,87.6,36.3,87.7,36.3z"/>
	
		<linearGradient id="SVGID_8_" gradientUnits="userSpaceOnUse" x1="479.6817" y1="-160.1446" x2="497.6634" y2="-155.2991" gradientTransform="matrix(-1.8638 -0.7249 -0.651 1.6737 899.9238 655.0499)">
		<stop  offset="0" style="stop-color:#6D5F27"/>
		<stop  offset="0.1408" style="stop-color:#725E27;stop-opacity:0.8592"/>
		<stop  offset="0.3444" style="stop-color:#805B29;stop-opacity:0.6556"/>
		<stop  offset="0.5864" style="stop-color:#95532B;stop-opacity:0.4136"/>
		<stop  offset="0.8555" style="stop-color:#B43C2E;stop-opacity:0.1445"/>
		<stop  offset="1" style="stop-color:#C72030;stop-opacity:0"/>
	</linearGradient>
	<path style="fill:url(#SVGID_8_);" d="M87.7,36.3C87.7,36.3,87.7,36.3,87.7,36.3C87.7,36.3,87.7,36.3,87.7,36.3L87.7,36.3z"/>
	
		<linearGradient id="SVGID_9_" gradientUnits="userSpaceOnUse" x1="479.6342" y1="-159.9684" x2="497.6159" y2="-155.1229" gradientTransform="matrix(-1.8638 -0.7249 -0.651 1.6737 899.9238 655.0499)">
		<stop  offset="0" style="stop-color:#6D5F27"/>
		<stop  offset="0.1408" style="stop-color:#725E27;stop-opacity:0.8592"/>
		<stop  offset="0.3444" style="stop-color:#805B29;stop-opacity:0.6556"/>
		<stop  offset="0.5864" style="stop-color:#95532B;stop-opacity:0.4136"/>
		<stop  offset="0.8555" style="stop-color:#B43C2E;stop-opacity:0.1445"/>
		<stop  offset="1" style="stop-color:#C72030;stop-opacity:0"/>
	</linearGradient>
	<path style="fill:url(#SVGID_9_);" d="M75.7,35.2c1.3,0,2.5,0,3.8,0.1l0,0C78.2,35.2,77,35.2,75.7,35.2z"/>
	
		<linearGradient id="SVGID_10_" gradientUnits="userSpaceOnUse" x1="479.6281" y1="-159.946" x2="497.6098" y2="-155.1005" gradientTransform="matrix(-1.8638 -0.7249 -0.651 1.6737 899.9238 655.0499)">
		<stop  offset="0" style="stop-color:#6D5F27"/>
		<stop  offset="0.1408" style="stop-color:#725E27;stop-opacity:0.8592"/>
		<stop  offset="0.3444" style="stop-color:#805B29;stop-opacity:0.6556"/>
		<stop  offset="0.5864" style="stop-color:#95532B;stop-opacity:0.4136"/>
		<stop  offset="0.8555" style="stop-color:#B43C2E;stop-opacity:0.1445"/>
		<stop  offset="1" style="stop-color:#C72030;stop-opacity:0"/>
	</linearGradient>
	<path style="fill:url(#SVGID_10_);" d="M95,38c-2.4-0.7-4.8-1.3-7.1-1.7c0,0,0,0,0,0C90.2,36.7,92.6,37.3,95,38z"/>
	<path style="fill:#414042;" d="M68.6,26.5L68.6,26.5c0.7,0,1.4,0,2.1-0.1C70,26.5,69.3,26.5,68.6,26.5z"/>
	
		<linearGradient id="SVGID_11_" gradientUnits="userSpaceOnUse" x1="480.7357" y1="-164.0563" x2="498.7174" y2="-159.2108" gradientTransform="matrix(-1.8638 -0.7249 -0.651 1.6737 899.9238 655.0499)">
		<stop  offset="0" style="stop-color:#6D5F27"/>
		<stop  offset="0.1408" style="stop-color:#725E27;stop-opacity:0.8592"/>
		<stop  offset="0.3444" style="stop-color:#805B29;stop-opacity:0.6556"/>
		<stop  offset="0.5864" style="stop-color:#95532B;stop-opacity:0.4136"/>
		<stop  offset="0.8555" style="stop-color:#B43C2E;stop-opacity:0.1445"/>
		<stop  offset="1" style="stop-color:#C72030;stop-opacity:0"/>
	</linearGradient>
	<path style="fill:url(#SVGID_11_);" d="M68.6,26.5L68.6,26.5c0.7,0,1.4,0,2.1-0.1C70,26.5,69.3,26.5,68.6,26.5z"/>
	<path style="fill:#C72030;" d="M75.7,35.2c1.3,0,2.5,0,3.8,0.1l0,0c2.7,0.2,5.4,0.5,8.1,1c0,0,0.1,0,0.1,0c0,0,0,0,0.1,0
		c0,0,0.1,0,0.1,0c2.4,0.4,4.7,1,7.1,1.7c8.7,2.5,15.2,6.3,19.2,9.1c-0.5-0.4-1-0.8-1.6-1.2l0.1-1.9l5.5,0.2
		c-0.2-0.2-0.3-0.3-0.5-0.5c-0.2-0.2-0.2-0.4-0.1-0.5c-4.5-4.6-8.1-6.4-10.5-7.7c-2.5-1.5-8.5-4.3-13.8-6c-3.1-1-11.7-2.8-15.2-3
		c-0.4,0-0.9,0-1.4-0.1l0,0c-1.7,0-3.7,0-5.9,0c-0.7,0-1.4,0-2.1,0.1l-1.1,9.3c1.1-0.2,2.3-0.3,3.4-0.4
		C72.5,35.3,74.1,35.2,75.7,35.2z"/>
	
		<linearGradient id="SVGID_12_" gradientUnits="userSpaceOnUse" x1="479.7729" y1="-160.4832" x2="497.7546" y2="-155.6377" gradientTransform="matrix(-1.8638 -0.7249 -0.651 1.6737 899.9238 655.0499)">
		<stop  offset="0" style="stop-color:#6D5F27"/>
		<stop  offset="0.1408" style="stop-color:#725E27;stop-opacity:0.8592"/>
		<stop  offset="0.3444" style="stop-color:#805B29;stop-opacity:0.6556"/>
		<stop  offset="0.5864" style="stop-color:#95532B;stop-opacity:0.4136"/>
		<stop  offset="0.8555" style="stop-color:#B43C2E;stop-opacity:0.1445"/>
		<stop  offset="1" style="stop-color:#C72030;stop-opacity:0"/>
	</linearGradient>
	<path style="fill:url(#SVGID_12_);" d="M75.7,35.2c1.3,0,2.5,0,3.8,0.1l0,0c2.7,0.2,5.4,0.5,8.1,1c0,0,0.1,0,0.1,0c0,0,0,0,0.1,0
		c0,0,0.1,0,0.1,0c2.4,0.4,4.7,1,7.1,1.7c8.7,2.5,15.2,6.3,19.2,9.1c-0.5-0.4-1-0.8-1.6-1.2l0.1-1.9l5.5,0.2
		c-0.2-0.2-0.3-0.3-0.5-0.5c-0.2-0.2-0.2-0.4-0.1-0.5c-4.5-4.6-8.1-6.4-10.5-7.7c-2.5-1.5-8.5-4.3-13.8-6c-3.1-1-11.7-2.8-15.2-3
		c-0.4,0-0.9,0-1.4-0.1l0,0c-1.7,0-3.7,0-5.9,0c-0.7,0-1.4,0-2.1,0.1l-1.1,9.3c1.1-0.2,2.3-0.3,3.4-0.4
		C72.5,35.3,74.1,35.2,75.7,35.2z"/>
	<path style="fill:#FFCC32;" d="M87.9,36.3C87.9,36.3,87.9,36.3,87.9,36.3c0,0-0.1,0-0.1,0l0,0C87.8,36.3,87.8,36.3,87.9,36.3z"/>
	
		<linearGradient id="SVGID_13_" gradientUnits="userSpaceOnUse" x1="479.6808" y1="-160.1413" x2="497.6625" y2="-155.2959" gradientTransform="matrix(-1.8638 -0.7249 -0.651 1.6737 899.9238 655.0499)">
		<stop  offset="0" style="stop-color:#6D5F27"/>
		<stop  offset="0.1408" style="stop-color:#725E27;stop-opacity:0.8592"/>
		<stop  offset="0.3444" style="stop-color:#805B29;stop-opacity:0.6556"/>
		<stop  offset="0.5864" style="stop-color:#95532B;stop-opacity:0.4136"/>
		<stop  offset="0.8555" style="stop-color:#B43C2E;stop-opacity:0.1445"/>
		<stop  offset="1" style="stop-color:#C72030;stop-opacity:0"/>
	</linearGradient>
	<path style="fill:url(#SVGID_13_);" d="M87.9,36.3C87.9,36.3,87.9,36.3,87.9,36.3c0,0-0.1,0-0.1,0l0,0
		C87.8,36.3,87.8,36.3,87.9,36.3z"/>
	<path style="fill:#C72030;" d="M78,26.5c3.5,0.2,12.1,2,15.2,3c5.3,1.7,11.3,4.5,13.8,6c2.5,1.3,6,3.1,10.5,7.7c0,0,0,0,0-0.1
		c-3.5-3.5-6.5-5.4-8.7-6.7c-0.6-0.3-1.2-0.7-1.7-0.9c-2.5-1.5-8.5-4.3-13.8-6c-1.4-0.4-3.8-1-6.4-1.6c-0.7-0.2-1.5-0.3-2.2-0.4
		s-1.5-0.3-2.2-0.4c-1.1-0.2-2.1-0.3-2.9-0.4c-0.6-0.1-1.1-0.1-1.5-0.1c-0.5,0-1,0-1.6-0.1l0,0C77.1,26.5,77.6,26.5,78,26.5z"/>
	
		<linearGradient id="SVGID_14_" gradientUnits="userSpaceOnUse" x1="476.4304" y1="-162.6224" x2="494.414" y2="-157.7765" gradientTransform="matrix(-1.8638 -0.7249 -0.651 1.6737 899.9238 655.0499)">
		<stop  offset="0" style="stop-color:#6D5F27"/>
		<stop  offset="8.838919e-02" style="stop-color:#6D5F28;stop-opacity:0.9116"/>
		<stop  offset="0.2164" style="stop-color:#6C5F2D;stop-opacity:0.7836"/>
		<stop  offset="0.3685" style="stop-color:#6A5F36;stop-opacity:0.6315"/>
		<stop  offset="0.5392" style="stop-color:#655E41;stop-opacity:0.4608"/>
		<stop  offset="0.7252" style="stop-color:#5D5949;stop-opacity:0.2748"/>
		<stop  offset="0.9213" style="stop-color:#4B4A47;stop-opacity:7.866341e-02"/>
		<stop  offset="1" style="stop-color:#414042;stop-opacity:0"/>
	</linearGradient>
	<path style="fill:url(#SVGID_14_);" d="M78,26.5c3.5,0.2,12.1,2,15.2,3c5.3,1.7,11.3,4.5,13.8,6c2.5,1.3,6,3.1,10.5,7.7
		c0,0,0,0,0-0.1c-3.5-3.5-6.5-5.4-8.7-6.7c-0.6-0.3-1.2-0.7-1.7-0.9c-2.5-1.5-8.5-4.3-13.8-6c-1.4-0.4-3.8-1-6.4-1.6
		c-0.7-0.2-1.5-0.3-2.2-0.4s-1.5-0.3-2.2-0.4c-1.1-0.2-2.1-0.3-2.9-0.4c-0.6-0.1-1.1-0.1-1.5-0.1c-0.5,0-1,0-1.6-0.1l0,0
		C77.1,26.5,77.6,26.5,78,26.5z"/>
	
		<linearGradient id="SVGID_15_" gradientUnits="userSpaceOnUse" x1="480.084" y1="-161.6379" x2="498.0657" y2="-156.7924" gradientTransform="matrix(-1.8638 -0.7249 -0.651 1.6737 899.9238 655.0499)">
		<stop  offset="0" style="stop-color:#6D5F27"/>
		<stop  offset="0.1408" style="stop-color:#725E27;stop-opacity:0.8592"/>
		<stop  offset="0.3444" style="stop-color:#805B29;stop-opacity:0.6556"/>
		<stop  offset="0.5864" style="stop-color:#95532B;stop-opacity:0.4136"/>
		<stop  offset="0.8555" style="stop-color:#B43C2E;stop-opacity:0.1445"/>
		<stop  offset="1" style="stop-color:#C72030;stop-opacity:0"/>
	</linearGradient>
	<path style="fill:url(#SVGID_15_);" d="M78,26.5c3.5,0.2,12.1,2,15.2,3c5.3,1.7,11.3,4.5,13.8,6c2.5,1.3,6,3.1,10.5,7.7
		c0,0,0,0,0-0.1c-3.5-3.5-6.5-5.4-8.7-6.7c-0.6-0.3-1.2-0.7-1.7-0.9c-2.5-1.5-8.5-4.3-13.8-6c-1.4-0.4-3.8-1-6.4-1.6
		c-0.7-0.2-1.5-0.3-2.2-0.4s-1.5-0.3-2.2-0.4c-1.1-0.2-2.1-0.3-2.9-0.4c-0.6-0.1-1.1-0.1-1.5-0.1c-0.5,0-1,0-1.6-0.1l0,0
		C77.1,26.5,77.6,26.5,78,26.5z"/>
	<path style="fill:#6D5F27;" d="M112.6,45.9c0.6,0.4,1.1,0.8,1.6,1.2c0.1,0.1,0.3,0.2,0.4,0.3c1.1,0.8,2,1.5,2.6,2.1
		c0.2,0.2,0.4,0.3,0.5,0.4c0.6,0.5,1.2,1,1.9,1.7c0.1-0.3,0.5-0.4,0.8-0.2c1.1,0.9,2.3,1.5,3.4,2.3c0.6,0.4,1.2,1,1.7,1.5l0.1-0.2
		c0,0-0.1-0.1-0.1-0.1c-0.2-0.5-0.5-0.9-0.8-1.2c-0.1-0.1-0.1-0.2-0.1-0.4c-0.5-0.7-1-1.5-1.5-2.2c-0.2-0.4-0.5-0.7-0.7-1.1
		c-0.2,0.1-0.4,0-0.5-0.2c-0.2-0.5-0.5-0.9-0.7-1.3c-0.2-0.2-0.4-0.3-0.6-0.5c-0.1-0.1-0.2-0.2-0.2-0.3c0,0,0,0,0,0
		c-0.2-0.3-0.4-0.5-0.6-0.8c-0.2-0.2-0.1-0.4,0-0.5c-0.5-0.7-1-1.3-1.6-1.9l-5.5-0.2L112.6,45.9z"/>
	
		<linearGradient id="SVGID_16_" gradientUnits="userSpaceOnUse" x1="476.9546" y1="-160.8359" x2="492.5904" y2="-156.6226" gradientTransform="matrix(-1.8638 -0.7249 -0.651 1.6737 899.9238 655.0499)">
		<stop  offset="0" style="stop-color:#6D5F27"/>
		<stop  offset="0.1408" style="stop-color:#736328;stop-opacity:0.8592"/>
		<stop  offset="0.3444" style="stop-color:#85702A;stop-opacity:0.6556"/>
		<stop  offset="0.5864" style="stop-color:#A5872E;stop-opacity:0.4136"/>
		<stop  offset="0.8555" style="stop-color:#D8AD32;stop-opacity:0.1445"/>
		<stop  offset="1" style="stop-color:#FFCC32;stop-opacity:0"/>
	</linearGradient>
	<path style="fill:url(#SVGID_16_);" d="M79.5,35.3L79.5,35.3c0.6,0,1.2,0.1,1.8,0.1C80.7,35.4,80.1,35.3,79.5,35.3z"/>
	
		<linearGradient id="SVGID_17_" gradientUnits="userSpaceOnUse" x1="475.4105" y1="-155.1058" x2="491.0463" y2="-150.8925" gradientTransform="matrix(-1.8638 -0.7249 -0.651 1.6737 899.9238 655.0499)">
		<stop  offset="0" style="stop-color:#6D5F27"/>
		<stop  offset="0.1408" style="stop-color:#736328;stop-opacity:0.8592"/>
		<stop  offset="0.3444" style="stop-color:#85702A;stop-opacity:0.6556"/>
		<stop  offset="0.5864" style="stop-color:#A5872E;stop-opacity:0.4136"/>
		<stop  offset="0.8555" style="stop-color:#D8AD32;stop-opacity:0.1445"/>
		<stop  offset="1" style="stop-color:#FFCC32;stop-opacity:0"/>
	</linearGradient>
	<path style="fill:url(#SVGID_17_);" d="M114.7,50.2c-7.4-4.9-19.5-7.6-31.8-7.1c-1.5,0.1-2.9,0.2-4.3,0.3l0,0
		c1.4-0.1,2.7-0.2,4.1-0.3c12.3-0.5,24.4,2.2,31.8,7.1c2.8,1.8,5.2,4,7.4,6.1v-0.2C119.8,54.1,117.3,51.9,114.7,50.2z"/>
	
		<linearGradient id="SVGID_18_" gradientUnits="userSpaceOnUse" x1="476.9676" y1="-160.8841" x2="492.6034" y2="-156.6708" gradientTransform="matrix(-1.8638 -0.7249 -0.651 1.6737 899.9238 655.0499)">
		<stop  offset="0" style="stop-color:#6D5F27"/>
		<stop  offset="0.1408" style="stop-color:#736328;stop-opacity:0.8592"/>
		<stop  offset="0.3444" style="stop-color:#85702A;stop-opacity:0.6556"/>
		<stop  offset="0.5864" style="stop-color:#A5872E;stop-opacity:0.4136"/>
		<stop  offset="0.8555" style="stop-color:#D8AD32;stop-opacity:0.1445"/>
		<stop  offset="1" style="stop-color:#FFCC32;stop-opacity:0"/>
	</linearGradient>
	<path style="fill:url(#SVGID_18_);" d="M86.8,36.1c0.3,0,0.6,0.1,0.8,0.1c0,0,0,0,0,0C87.3,36.2,87,36.2,86.8,36.1z"/>
	<path style="fill:#FFCC32;" d="M114.7,50.2c2.7,1.8,5.1,3.9,7.2,6v-1.9c-0.5-0.6-1.1-1.2-1.6-1.7c-0.2-0.2-0.4-0.3-0.6-0.5
		c-0.1-0.1-0.2-0.2-0.2-0.3c-0.6-0.6-1.2-1.2-1.7-1.7c-0.2-0.2-0.4-0.4-0.6-0.6c-2.9-2.3-10.8-8-22.4-11.5c-2.4-0.7-4.8-1.3-7.2-1.7
		c-0.3-0.1-0.6-0.1-0.8-0.1c-1.9-0.3-3.7-0.5-5.5-0.7c-0.6,0-1.2-0.1-1.8-0.1l-0.9,8c1.4-0.1,2.9-0.2,4.3-0.3
		C95.2,42.5,107.3,45.2,114.7,50.2z"/>
	
		<linearGradient id="SVGID_19_" gradientUnits="userSpaceOnUse" x1="475.8805" y1="-156.8499" x2="491.5163" y2="-152.6366" gradientTransform="matrix(-1.8638 -0.7249 -0.651 1.6737 899.9238 655.0499)">
		<stop  offset="0" style="stop-color:#6D5F27"/>
		<stop  offset="0.1408" style="stop-color:#736328;stop-opacity:0.8592"/>
		<stop  offset="0.3444" style="stop-color:#85702A;stop-opacity:0.6556"/>
		<stop  offset="0.5864" style="stop-color:#A5872E;stop-opacity:0.4136"/>
		<stop  offset="0.8555" style="stop-color:#D8AD32;stop-opacity:0.1445"/>
		<stop  offset="1" style="stop-color:#FFCC32;stop-opacity:0"/>
	</linearGradient>
	<path style="fill:url(#SVGID_19_);" d="M114.7,50.2c2.7,1.8,5.1,3.9,7.2,6v-1.9c-0.5-0.6-1.1-1.2-1.6-1.7c-0.2-0.2-0.4-0.3-0.6-0.5
		c-0.1-0.1-0.2-0.2-0.2-0.3c-0.6-0.6-1.2-1.2-1.7-1.7c-0.2-0.2-0.4-0.4-0.6-0.6c-2.9-2.3-10.8-8-22.4-11.5c-2.4-0.7-4.8-1.3-7.2-1.7
		c-0.3-0.1-0.6-0.1-0.8-0.1c-1.9-0.3-3.7-0.5-5.5-0.7c-0.6,0-1.2-0.1-1.8-0.1l-0.9,8c1.4-0.1,2.9-0.2,4.3-0.3
		C95.2,42.5,107.3,45.2,114.7,50.2z"/>
	
		<linearGradient id="SVGID_20_" gradientUnits="userSpaceOnUse" x1="479.6711" y1="-160.1052" x2="497.6527" y2="-155.2597" gradientTransform="matrix(-1.8638 -0.7249 -0.651 1.6737 899.9238 655.0499)">
		<stop  offset="0" style="stop-color:#6D5F27"/>
		<stop  offset="0.1408" style="stop-color:#725E27;stop-opacity:0.8592"/>
		<stop  offset="0.3444" style="stop-color:#805B29;stop-opacity:0.6556"/>
		<stop  offset="0.5864" style="stop-color:#95532B;stop-opacity:0.4136"/>
		<stop  offset="0.8555" style="stop-color:#B43C2E;stop-opacity:0.1445"/>
		<stop  offset="1" style="stop-color:#C72030;stop-opacity:0"/>
	</linearGradient>
	<path style="fill:url(#SVGID_20_);" d="M79.5,35.3L79.5,35.3c0.6,0,1.2,0.1,1.8,0.1c0,0,0,0,0,0C80.7,35.4,80.1,35.3,79.5,35.3z"/>
	
		<linearGradient id="SVGID_21_" gradientUnits="userSpaceOnUse" x1="476.9549" y1="-160.8371" x2="492.5907" y2="-156.6238" gradientTransform="matrix(-1.8638 -0.7249 -0.651 1.6737 899.9238 655.0499)">
		<stop  offset="0" style="stop-color:#6D5F27"/>
		<stop  offset="0.1408" style="stop-color:#736328;stop-opacity:0.8592"/>
		<stop  offset="0.3444" style="stop-color:#85702A;stop-opacity:0.6556"/>
		<stop  offset="0.5864" style="stop-color:#A5872E;stop-opacity:0.4136"/>
		<stop  offset="0.8555" style="stop-color:#D8AD32;stop-opacity:0.1445"/>
		<stop  offset="1" style="stop-color:#FFCC32;stop-opacity:0"/>
	</linearGradient>
	<path style="fill:url(#SVGID_21_);" d="M79.5,35.3L79.5,35.3c0.6,0,1.2,0.1,1.8,0.1c0,0,0,0,0,0C80.7,35.4,80.1,35.3,79.5,35.3z"/>
	
		<linearGradient id="SVGID_22_" gradientUnits="userSpaceOnUse" x1="479.6839" y1="-160.153" x2="497.6656" y2="-155.3075" gradientTransform="matrix(-1.8638 -0.7249 -0.651 1.6737 899.9238 655.0499)">
		<stop  offset="0" style="stop-color:#6D5F27"/>
		<stop  offset="0.1408" style="stop-color:#725E27;stop-opacity:0.8592"/>
		<stop  offset="0.3444" style="stop-color:#805B29;stop-opacity:0.6556"/>
		<stop  offset="0.5864" style="stop-color:#95532B;stop-opacity:0.4136"/>
		<stop  offset="0.8555" style="stop-color:#B43C2E;stop-opacity:0.1445"/>
		<stop  offset="1" style="stop-color:#C72030;stop-opacity:0"/>
	</linearGradient>
	<path style="fill:url(#SVGID_22_);" d="M87.6,36.3c-0.3,0-0.5-0.1-0.8-0.1c0,0,0,0,0,0C87,36.2,87.3,36.2,87.6,36.3L87.6,36.3z"/>
	
		<linearGradient id="SVGID_23_" gradientUnits="userSpaceOnUse" x1="476.9678" y1="-160.8849" x2="492.6036" y2="-156.6716" gradientTransform="matrix(-1.8638 -0.7249 -0.651 1.6737 899.9238 655.0499)">
		<stop  offset="0" style="stop-color:#6D5F27"/>
		<stop  offset="0.1408" style="stop-color:#736328;stop-opacity:0.8592"/>
		<stop  offset="0.3444" style="stop-color:#85702A;stop-opacity:0.6556"/>
		<stop  offset="0.5864" style="stop-color:#A5872E;stop-opacity:0.4136"/>
		<stop  offset="0.8555" style="stop-color:#D8AD32;stop-opacity:0.1445"/>
		<stop  offset="1" style="stop-color:#FFCC32;stop-opacity:0"/>
	</linearGradient>
	<path style="fill:url(#SVGID_23_);" d="M87.6,36.3c-0.3,0-0.5-0.1-0.8-0.1c0,0,0,0,0,0C87,36.2,87.3,36.2,87.6,36.3L87.6,36.3z"/>
	<path style="fill:#C72030;" d="M86.8,36.1c0.3,0,0.5,0.1,0.8,0.1c-2.7-0.5-5.4-0.8-8.1-1l0,0c0.6,0,1.2,0.1,1.8,0.1
		C83.1,35.6,84.9,35.8,86.8,36.1z"/>
	
		<linearGradient id="SVGID_24_" gradientUnits="userSpaceOnUse" x1="479.6785" y1="-160.1327" x2="497.6602" y2="-155.2872" gradientTransform="matrix(-1.8638 -0.7249 -0.651 1.6737 899.9238 655.0499)">
		<stop  offset="0" style="stop-color:#6D5F27"/>
		<stop  offset="0.1408" style="stop-color:#725E27;stop-opacity:0.8592"/>
		<stop  offset="0.3444" style="stop-color:#805B29;stop-opacity:0.6556"/>
		<stop  offset="0.5864" style="stop-color:#95532B;stop-opacity:0.4136"/>
		<stop  offset="0.8555" style="stop-color:#B43C2E;stop-opacity:0.1445"/>
		<stop  offset="1" style="stop-color:#C72030;stop-opacity:0"/>
	</linearGradient>
	<path style="fill:url(#SVGID_24_);" d="M86.8,36.1c0.3,0,0.5,0.1,0.8,0.1c-2.7-0.5-5.4-0.8-8.1-1l0,0c0.6,0,1.2,0.1,1.8,0.1
		C83.1,35.6,84.9,35.8,86.8,36.1z"/>
	
		<linearGradient id="SVGID_25_" gradientUnits="userSpaceOnUse" x1="476.9623" y1="-160.8646" x2="492.5981" y2="-156.6513" gradientTransform="matrix(-1.8638 -0.7249 -0.651 1.6737 899.9238 655.0499)">
		<stop  offset="0" style="stop-color:#6D5F27"/>
		<stop  offset="0.1408" style="stop-color:#736328;stop-opacity:0.8592"/>
		<stop  offset="0.3444" style="stop-color:#85702A;stop-opacity:0.6556"/>
		<stop  offset="0.5864" style="stop-color:#A5872E;stop-opacity:0.4136"/>
		<stop  offset="0.8555" style="stop-color:#D8AD32;stop-opacity:0.1445"/>
		<stop  offset="1" style="stop-color:#FFCC32;stop-opacity:0"/>
	</linearGradient>
	<path style="fill:url(#SVGID_25_);" d="M86.8,36.1c0.3,0,0.5,0.1,0.8,0.1c-2.7-0.5-5.4-0.8-8.1-1l0,0c0.6,0,1.2,0.1,1.8,0.1
		C83.1,35.6,84.9,35.8,86.8,36.1z"/>
	<path style="fill:#FFCC32;" d="M81.3,35.4C81.3,35.4,81.3,35.4,81.3,35.4c1.8,0.2,3.7,0.4,5.5,0.7c0,0,0,0,0,0
		C84.9,35.8,83.1,35.6,81.3,35.4z"/>
	
		<linearGradient id="SVGID_26_" gradientUnits="userSpaceOnUse" x1="479.6852" y1="-160.1577" x2="497.6669" y2="-155.3122" gradientTransform="matrix(-1.8638 -0.7249 -0.651 1.6737 899.9238 655.0499)">
		<stop  offset="0" style="stop-color:#6D5F27"/>
		<stop  offset="0.1408" style="stop-color:#725E27;stop-opacity:0.8592"/>
		<stop  offset="0.3444" style="stop-color:#805B29;stop-opacity:0.6556"/>
		<stop  offset="0.5864" style="stop-color:#95532B;stop-opacity:0.4136"/>
		<stop  offset="0.8555" style="stop-color:#B43C2E;stop-opacity:0.1445"/>
		<stop  offset="1" style="stop-color:#C72030;stop-opacity:0"/>
	</linearGradient>
	<path style="fill:url(#SVGID_26_);" d="M81.3,35.4C81.3,35.4,81.3,35.4,81.3,35.4c1.8,0.2,3.7,0.4,5.5,0.7c0,0,0,0,0,0
		C84.9,35.8,83.1,35.6,81.3,35.4z"/>
	
		<linearGradient id="SVGID_27_" gradientUnits="userSpaceOnUse" x1="476.969" y1="-160.8895" x2="492.6048" y2="-156.6762" gradientTransform="matrix(-1.8638 -0.7249 -0.651 1.6737 899.9238 655.0499)">
		<stop  offset="0" style="stop-color:#6D5F27"/>
		<stop  offset="0.1408" style="stop-color:#736328;stop-opacity:0.8592"/>
		<stop  offset="0.3444" style="stop-color:#85702A;stop-opacity:0.6556"/>
		<stop  offset="0.5864" style="stop-color:#A5872E;stop-opacity:0.4136"/>
		<stop  offset="0.8555" style="stop-color:#D8AD32;stop-opacity:0.1445"/>
		<stop  offset="1" style="stop-color:#FFCC32;stop-opacity:0"/>
	</linearGradient>
	<path style="fill:url(#SVGID_27_);" d="M81.3,35.4C81.3,35.4,81.3,35.4,81.3,35.4c1.8,0.2,3.7,0.4,5.5,0.7c0,0,0,0,0,0
		C84.9,35.8,83.1,35.6,81.3,35.4z"/>
	<path style="fill:#6D5F27;" d="M120.3,52.6c0.5,0.6,1,1.1,1.6,1.7v-0.5c-0.1-0.1-0.3-0.3-0.4-0.4C121.1,53.1,120.7,52.9,120.3,52.6
		z"/>
	
		<linearGradient id="SVGID_28_" gradientUnits="userSpaceOnUse" x1="475.1595" y1="-154.1742" x2="490.7953" y2="-149.9609" gradientTransform="matrix(-1.8638 -0.7249 -0.651 1.6737 899.9238 655.0499)">
		<stop  offset="0" style="stop-color:#6D5F27"/>
		<stop  offset="0.1408" style="stop-color:#736328;stop-opacity:0.8592"/>
		<stop  offset="0.3444" style="stop-color:#85702A;stop-opacity:0.6556"/>
		<stop  offset="0.5864" style="stop-color:#A5872E;stop-opacity:0.4136"/>
		<stop  offset="0.8555" style="stop-color:#D8AD32;stop-opacity:0.1445"/>
		<stop  offset="1" style="stop-color:#FFCC32;stop-opacity:0"/>
	</linearGradient>
	<path style="fill:url(#SVGID_28_);" d="M120.3,52.6c0.5,0.6,1,1.1,1.6,1.7v-0.5c-0.1-0.1-0.3-0.3-0.4-0.4
		C121.1,53.1,120.7,52.9,120.3,52.6z"/>
	<path style="fill:#6D5F27;" d="M119.6,51.6c-0.7-0.6-1.3-1.2-1.9-1.7c-0.1-0.1-0.3-0.3-0.5-0.4c0.2,0.2,0.5,0.4,0.6,0.6
		c0.5,0.5,1.1,1.1,1.7,1.7C119.6,51.7,119.6,51.6,119.6,51.6z"/>
	
		<linearGradient id="SVGID_29_" gradientUnits="userSpaceOnUse" x1="475.5076" y1="-155.4662" x2="491.1434" y2="-151.2529" gradientTransform="matrix(-1.8638 -0.7249 -0.651 1.6737 899.9238 655.0499)">
		<stop  offset="0" style="stop-color:#6D5F27"/>
		<stop  offset="0.1408" style="stop-color:#736328;stop-opacity:0.8592"/>
		<stop  offset="0.3444" style="stop-color:#85702A;stop-opacity:0.6556"/>
		<stop  offset="0.5864" style="stop-color:#A5872E;stop-opacity:0.4136"/>
		<stop  offset="0.8555" style="stop-color:#D8AD32;stop-opacity:0.1445"/>
		<stop  offset="1" style="stop-color:#FFCC32;stop-opacity:0"/>
	</linearGradient>
	<path style="fill:url(#SVGID_29_);" d="M119.6,51.6c-0.7-0.6-1.3-1.2-1.9-1.7c-0.1-0.1-0.3-0.3-0.5-0.4c0.2,0.2,0.5,0.4,0.6,0.6
		c0.5,0.5,1.1,1.1,1.7,1.7C119.6,51.7,119.6,51.6,119.6,51.6z"/>
	<path style="fill:#6D5F27;" d="M124.3,58.8l0.6-1.7c0,0,0,0,0,0c-0.1,0-0.1-0.1-0.2-0.1c-0.2-0.2-0.3-0.5-0.5-0.7
		c-0.3-0.3-0.1-0.7,0.2-0.8c-0.6-0.5-1.1-1-1.8-1.3c-0.4-0.2-0.7-0.4-1.1-0.7c0.1,0.1,0.3,0.3,0.4,0.4v0.5v1.9v0.2
		c1.1,1.1,2.2,2.2,3.1,3.3l0-0.1C124.8,59.3,124.5,59,124.3,58.8z"/>
	
		<linearGradient id="SVGID_30_" gradientUnits="userSpaceOnUse" x1="53.6677" y1="-30.5521" x2="76.9153" y2="-21.6268" gradientTransform="matrix(1.8758 0.6932 0.6225 -1.6845 46.4904 -29.6168)">
		<stop  offset="8.588960e-02" style="stop-color:#6D5F27"/>
		<stop  offset="0.1688" style="stop-color:#6D5F2A;stop-opacity:0.902"/>
		<stop  offset="0.3319" style="stop-color:#695F37;stop-opacity:0.7091"/>
		<stop  offset="0.5594" style="stop-color:#625C46;stop-opacity:0.4402"/>
		<stop  offset="0.8399" style="stop-color:#4C4B48;stop-opacity:0.1087"/>
		<stop  offset="0.9318" style="stop-color:#414042;stop-opacity:0"/>
	</linearGradient>
	<path style="fill:url(#SVGID_30_);" d="M126.4,54.4C126.4,54.4,126.4,54.4,126.4,54.4c0.1,0.1,0.2,0.3,0.3,0.4l-0.1,0.3
		c-0.1-0.1-0.1-0.2-0.2-0.3c-0.1,0.1-0.1,0.2-0.2,0.2c0.1,0.2,0.2,0.3,0.3,0.5l-0.2,0.4c0.1,0.1,0.2,0.2,0.4,0.4
		c0.4,0.4-0.1,1-0.5,0.8c-0.1,0.3-0.4,0.5-0.7,0.3c-0.2-0.1-0.3-0.2-0.5-0.3l0,0c0.2,0.3,0.4,0.5,0.7,0.8l-0.6,1.6
		c1.5,1.6,3.2,3.7,3.7,4.5l2.9-1.3c0.1-0.1,0.2-0.1,0.2-0.1l1.2-0.6c-0.5-0.5-0.9-1-1.2-1.4c-1.4-1.5-3.8-4.5-5.5-6.7
		c0,0,0,0.1,0.1,0.1C126.4,54.2,126.5,54.3,126.4,54.4z"/>
	<path style="fill:#FFCC32;" d="M124.9,57.1C124.9,57.1,124.9,57.1,124.9,57.1L124.9,57.1C124.9,57.1,124.9,57.1,124.9,57.1
		L124.9,57.1z"/>
	
		<linearGradient id="SVGID_31_" gradientUnits="userSpaceOnUse" x1="53.3005" y1="-29.5958" x2="76.5481" y2="-20.6705" gradientTransform="matrix(1.8758 0.6932 0.6225 -1.6845 46.4904 -29.6168)">
		<stop  offset="8.588960e-02" style="stop-color:#6D5F27"/>
		<stop  offset="0.1688" style="stop-color:#6D5F2A;stop-opacity:0.902"/>
		<stop  offset="0.3319" style="stop-color:#695F37;stop-opacity:0.7091"/>
		<stop  offset="0.5594" style="stop-color:#625C46;stop-opacity:0.4402"/>
		<stop  offset="0.8399" style="stop-color:#4C4B48;stop-opacity:0.1087"/>
		<stop  offset="0.9318" style="stop-color:#414042;stop-opacity:0"/>
	</linearGradient>
	<path style="fill:url(#SVGID_31_);" d="M124.9,57.1C124.9,57.1,124.9,57.1,124.9,57.1L124.9,57.1C124.9,57.1,124.9,57.1,124.9,57.1
		L124.9,57.1z"/>
	
		<linearGradient id="SVGID_32_" gradientUnits="userSpaceOnUse" x1="474.1339" y1="-154.0996" x2="492.1175" y2="-149.2537" gradientTransform="matrix(-1.8638 -0.7249 -0.651 1.6737 899.9238 655.0499)">
		<stop  offset="0" style="stop-color:#6D5F27"/>
		<stop  offset="8.838919e-02" style="stop-color:#6D5F28;stop-opacity:0.9116"/>
		<stop  offset="0.2164" style="stop-color:#6C5F2D;stop-opacity:0.7836"/>
		<stop  offset="0.3685" style="stop-color:#6A5F36;stop-opacity:0.6315"/>
		<stop  offset="0.5392" style="stop-color:#655E41;stop-opacity:0.4608"/>
		<stop  offset="0.7252" style="stop-color:#5D5949;stop-opacity:0.2748"/>
		<stop  offset="0.9213" style="stop-color:#4B4A47;stop-opacity:7.866341e-02"/>
		<stop  offset="1" style="stop-color:#414042;stop-opacity:0"/>
	</linearGradient>
	<path style="fill:url(#SVGID_32_);" d="M126.7,54.8c-0.1-0.1-0.2-0.2-0.3-0.4c0,0.1,0,0.2,0,0.3c0.1,0.1,0.1,0.2,0.2,0.3
		L126.7,54.8z"/>
	
		<linearGradient id="SVGID_33_" gradientUnits="userSpaceOnUse" x1="52.8318" y1="-28.3748" x2="76.0794" y2="-19.4495" gradientTransform="matrix(1.8758 0.6932 0.6225 -1.6845 46.4904 -29.6168)">
		<stop  offset="8.588960e-02" style="stop-color:#6D5F27"/>
		<stop  offset="0.1688" style="stop-color:#6D5F2A;stop-opacity:0.902"/>
		<stop  offset="0.3319" style="stop-color:#695F37;stop-opacity:0.7091"/>
		<stop  offset="0.5594" style="stop-color:#625C46;stop-opacity:0.4402"/>
		<stop  offset="0.8399" style="stop-color:#4C4B48;stop-opacity:0.1087"/>
		<stop  offset="0.9318" style="stop-color:#414042;stop-opacity:0"/>
	</linearGradient>
	<path style="fill:url(#SVGID_33_);" d="M126.7,54.8c-0.1-0.1-0.2-0.2-0.3-0.4c0,0.1,0,0.2,0,0.3c0.1,0.1,0.1,0.2,0.2,0.3
		L126.7,54.8z"/>
	<path style="fill:#6D5F27;" d="M126.3,55.9l0.2-0.4c-0.1-0.2-0.2-0.3-0.3-0.5c-0.2,0.1-0.4,0.1-0.5-0.1l-0.1,0.2
		C125.8,55.4,126.1,55.6,126.3,55.9z"/>
	
		<linearGradient id="SVGID_34_" gradientUnits="userSpaceOnUse" x1="52.9637" y1="-28.7185" x2="76.2113" y2="-19.7932" gradientTransform="matrix(1.8758 0.6932 0.6225 -1.6845 46.4904 -29.6168)">
		<stop  offset="8.588960e-02" style="stop-color:#6D5F27"/>
		<stop  offset="0.1688" style="stop-color:#6D5F2A;stop-opacity:0.902"/>
		<stop  offset="0.3319" style="stop-color:#695F37;stop-opacity:0.7091"/>
		<stop  offset="0.5594" style="stop-color:#625C46;stop-opacity:0.4402"/>
		<stop  offset="0.8399" style="stop-color:#4C4B48;stop-opacity:0.1087"/>
		<stop  offset="0.9318" style="stop-color:#414042;stop-opacity:0"/>
	</linearGradient>
	<path style="fill:url(#SVGID_34_);" d="M126.3,55.9l0.2-0.4c-0.1-0.2-0.2-0.3-0.3-0.5c-0.2,0.1-0.4,0.1-0.5-0.1l-0.1,0.2
		C125.8,55.4,126.1,55.6,126.3,55.9z"/>
	<path style="fill:#6D5F27;" d="M125.6,57.9c-0.2-0.2-0.4-0.5-0.7-0.8c0,0,0,0,0-0.1l-0.6,1.7c0.2,0.2,0.5,0.5,0.7,0.7L125.6,57.9z"
		/>
	
		<linearGradient id="SVGID_35_" gradientUnits="userSpaceOnUse" x1="53.5379" y1="-30.214" x2="76.7855" y2="-21.2887" gradientTransform="matrix(1.8758 0.6932 0.6225 -1.6845 46.4904 -29.6168)">
		<stop  offset="8.588960e-02" style="stop-color:#6D5F27"/>
		<stop  offset="0.1688" style="stop-color:#6D5F2A;stop-opacity:0.902"/>
		<stop  offset="0.3319" style="stop-color:#695F37;stop-opacity:0.7091"/>
		<stop  offset="0.5594" style="stop-color:#625C46;stop-opacity:0.4402"/>
		<stop  offset="0.8399" style="stop-color:#4C4B48;stop-opacity:0.1087"/>
		<stop  offset="0.9318" style="stop-color:#414042;stop-opacity:0"/>
	</linearGradient>
	<path style="fill:url(#SVGID_35_);" d="M125.6,57.9c-0.2-0.2-0.4-0.5-0.7-0.8c0,0,0,0,0-0.1l-0.6,1.7c0.2,0.2,0.5,0.5,0.7,0.7
		L125.6,57.9z"/>
	<path style="fill:#FBD41E;" d="M132.7,65.6c-2.6-1.6-1.6-2.5-1.1-2.8l-2.9,1.3c0,0.1,0.1,0.2,0.1,0.2c8.1,10.4,18.2,24.4,35.1,24.2
		c4.6-0.1,8.4-0.5,11.5-1l1.5-14.6C162.3,78.7,146.5,78.7,132.7,65.6z"/>
	<g>
		<path style="fill:#FBD41E;" d="M216.2,51.6c-0.4-2.1-0.8-4.3-1.3-6.5C205.4,55.3,191.8,67,177,72.9l-1.5,14.6
			c6.5-1.1,10.4-2.9,13-3.8c18.6-6.9,29.9-20.9,30-20.9C218.4,62.6,217.4,57.7,216.2,51.6z"/>
		
			<linearGradient id="SVGID_36_" gradientUnits="userSpaceOnUse" x1="56.8544" y1="-38.8524" x2="80.102" y2="-29.9271" gradientTransform="matrix(1.8758 0.6932 0.6225 -1.6845 46.4904 -29.6168)">
			<stop  offset="8.588960e-02" style="stop-color:#6D5F27"/>
			<stop  offset="0.1688" style="stop-color:#6D5F2A;stop-opacity:0.902"/>
			<stop  offset="0.3319" style="stop-color:#695F37;stop-opacity:0.7091"/>
			<stop  offset="0.5594" style="stop-color:#625C46;stop-opacity:0.4402"/>
			<stop  offset="0.8399" style="stop-color:#4C4B48;stop-opacity:0.1087"/>
			<stop  offset="0.9318" style="stop-color:#414042;stop-opacity:0"/>
		</linearGradient>
		<path style="fill:url(#SVGID_36_);" d="M132.7,65.6c-2.6-1.6-1.6-2.5-1.1-2.8l-2.9,1.3c0,0.1,0.1,0.2,0.1,0.2
			c8.1,10.4,18.2,24.4,35.1,24.2c4.6-0.1,8.4-0.5,11.5-1l1.5-14.6C162.3,78.7,146.5,78.7,132.7,65.6z"/>
	</g>
	<path style="fill:#045DA9;" d="M131.6,62.8c-0.5,0.3-1.5,1.2,1.1,2.8c13.8,13.1,29.6,13.1,44.3,7.3l1.7-16.8
		c-6.4,4.1-12.2,6.9-17.1,8.4c-19.4,6.2-25.5,1-28.6-2.4l-1.2,0.6C131.8,62.7,131.7,62.7,131.6,62.8z"/>
	<g>
		<path style="fill:#045DA9;" d="M213.7,38.8c-1.3-6.6-2.4-12-2.4-12.3c-10.7,13-22.3,22.9-32.6,29.6L177,72.9
			c14.8-5.9,28.4-17.6,37.9-27.8C214.5,43,214.1,40.8,213.7,38.8z"/>
		
			<linearGradient id="SVGID_37_" gradientUnits="userSpaceOnUse" x1="54.9279" y1="-33.8346" x2="78.1755" y2="-24.9093" gradientTransform="matrix(1.8758 0.6932 0.6225 -1.6845 46.4904 -29.6168)">
			<stop  offset="8.588960e-02" style="stop-color:#6D5F27"/>
			<stop  offset="0.1688" style="stop-color:#6D5F2A;stop-opacity:0.902"/>
			<stop  offset="0.3319" style="stop-color:#695F37;stop-opacity:0.7091"/>
			<stop  offset="0.5594" style="stop-color:#625C46;stop-opacity:0.4402"/>
			<stop  offset="0.8399" style="stop-color:#4C4B48;stop-opacity:0.1087"/>
			<stop  offset="0.9318" style="stop-color:#414042;stop-opacity:0"/>
		</linearGradient>
		<path style="fill:url(#SVGID_37_);" d="M161.6,64.5c-19.4,6.2-25.5,1-28.6-2.4l-1.2,0.6c0,0-0.1,0-0.2,0.1
			c-0.5,0.3-1.5,1.2,1.1,2.8c13.8,13.1,29.6,13.1,44.3,7.3l1.7-16.8C172.3,60.1,166.4,63,161.6,64.5z"/>
	</g>
	<path style="fill:#6C5F2D;" d="M130,60.6c-1.3-1.9-2.6-3.7-3.9-5.5c0,0,0.1,0,0.1,0c0.1-0.1,0.2-0.1,0.2-0.2c0.1-0.1,0.1-0.2,0-0.3
		c0,0,0,0,0,0c0-0.1,0-0.2-0.1-0.4c0,0,0-0.1-0.1-0.1c-0.2-0.2-0.3-0.5-0.5-0.7c0,0,0-0.1-0.1-0.1c-0.8-1.2-1.6-2.4-2.4-3.5
		c-0.2-0.3-0.4-0.6-0.7-1c-0.2-0.3-0.5-0.6-0.7-0.9c-0.8-1.5-1.9-2.8-3-4.1c-0.2-0.2-0.4-0.5-0.6-0.7c-0.3-0.3-0.6-0.1-0.7,0.1
		c0,0,0,0,0,0c0,0,0,0,0,0.1c-0.1,0.2-0.1,0.4,0.1,0.5c0.2,0.2,0.3,0.3,0.5,0.5c0.6,0.6,1.1,1.3,1.6,1.9c-0.1,0.1-0.2,0.3,0,0.5
		c0.2,0.3,0.4,0.5,0.6,0.8c0,0,0,0,0,0c0,0.1,0.1,0.2,0.2,0.3c0.2,0.1,0.4,0.3,0.6,0.5c0.3,0.4,0.5,0.9,0.7,1.3
		c0.1,0.2,0.3,0.3,0.5,0.2c0.2,0.4,0.5,0.8,0.7,1.1c0.5,0.7,1,1.5,1.5,2.2c0,0.1,0,0.3,0.1,0.4c0.2,0.2,0.4,0.5,0.6,0.8
		c-0.1,0-0.2,0-0.3,0c-0.9-0.9-2.1-1.7-2.8-2.3c-0.3-0.2-0.6-0.1-0.7,0.1c-0.3-0.2-0.7-0.5-1-0.8c-0.3-0.3-0.7-0.1-0.8,0.2
		c0,0.1,0,0.1-0.1,0.2c0,0.1,0,0.2,0.2,0.3c0.2,0.2,0.4,0.3,0.6,0.5c0.4,0.3,0.8,0.6,1.2,0.9c0.3,0.2,0.7,0.5,1.1,0.7
		c0.2,0.1,0.4,0.2,0.6,0.4c0,0,0,0,0,0c0.1,0.3,0.2,0.6,0.4,0.9c-0.1,0.1-0.2,0.3,0,0.6c0.4,0.7,0.9,1.3,1.4,1.9
		c0.6,0.7,1.2,1.4,1.9,2c0,0,0,0,0.1,0c0.3,0.4,0.8,0.1,0.9-0.3c0,0,0,0,0,0c0.1,0.2,0.4,0.2,0.5,0.1c0.3,0.5,0.6,0.9,1,1.4
		C129.5,61.6,130.3,61.1,130,60.6z"/>
	<linearGradient id="SVGID_38_" gradientUnits="userSpaceOnUse" x1="128.7419" y1="63.4827" x2="133.2205" y2="63.5812">
		<stop  offset="8.588960e-02" style="stop-color:#6D5F27"/>
		<stop  offset="0.1688" style="stop-color:#6D5F2A;stop-opacity:0.902"/>
		<stop  offset="0.3319" style="stop-color:#695F37;stop-opacity:0.7091"/>
		<stop  offset="0.5594" style="stop-color:#625C46;stop-opacity:0.4402"/>
		<stop  offset="0.8399" style="stop-color:#4C4B48;stop-opacity:0.1087"/>
		<stop  offset="0.9318" style="stop-color:#414042;stop-opacity:0"/>
	</linearGradient>
	<path style="fill:url(#SVGID_38_);" d="M132.8,62.4c-0.2,0-0.4,0-0.7-0.1c-0.1-0.1-0.3-0.2-0.5-0.2c-0.2-0.2-0.5-0.4-0.8-0.5
		c0,0-0.1,0-0.1,0c-0.3-0.2-0.7,0-0.8,0.3c-0.1,0.1-0.2,0.3-0.2,0.5c0,0,0,0.1,0,0.1c-0.1,0-0.1,0.1-0.1,0.1
		c-0.5-0.2-1.1,0.4-0.6,0.8c0.2,0.2,0.5,0.4,0.7,0.6c0.4,0.4,0.7,0.7,1.2,0.9c0.2,0.1,0.4,0.1,0.5,0c0.3,0.2,0.5,0.3,0.7,0.5
		c0.6,0.3,1.1-0.5,0.5-0.9c0,0-0.1-0.1-0.1-0.1c0,0,0-0.1,0-0.1c-0.1-0.3-0.1-0.6-0.2-0.9c0.2,0,0.4,0,0.5,0
		C133.4,63.5,133.4,62.5,132.8,62.4z"/>
</g>
<g id="Layer_3">
	<path style="fill:#6C5F2D;" d="M134.9,64.8c-0.6-0.7-1.2-1.4-1.8-2.1c0,0,0-0.1,0-0.1c0-0.3-0.1-0.5-0.3-0.7
		c-0.2-0.1-0.4-0.2-0.5-0.1c0,0-0.1-0.1-0.1-0.1c-0.1-0.1-0.3-0.2-0.4-0.1c-0.1-0.1-0.2-0.3-0.3-0.4c-0.3-0.3-0.6-0.1-0.8,0.1
		c0.1-0.1,0.1-0.3,0-0.4c-1.1-1.9-2.5-3.5-4-5.1c-0.4-0.4-1.1,0.1-0.8,0.6l0.8,1.3c-0.7-0.7-1.4-1.3-2.1-2c-0.1-0.1-0.3-0.2-0.4-0.1
		c-0.5-0.4-1.1-0.8-1.7-1.2c0,0-0.1,0-0.1-0.1c0-0.1-0.1-0.1-0.2-0.2c-1-0.5-2-1-2.9-1.7c-0.5-0.4-1.2,0.3-0.7,0.7
		c0.1,0.1,0.2,0.2,0.3,0.3c0,0.1,0.1,0.1,0.1,0.2c0.1,0.1,0.2,0.2,0.3,0.2c0,0.1,0.1,0.1,0.1,0.2c0.6,0.5,1.2,1,1.8,1.4
		c0.3,0.2,0.5,0,0.7-0.2c0,0,0,0,0,0c1.6,1,3,2.1,4.3,3.4c0,0,0,0,0.1,0.1c0.8,0.7,1.6,1.4,2.4,2.2c0.1,0.1,0.1,0.1,0.2,0.2l0.4,0.6
		c0.1,0.1,0.2,0.2,0.3,0.2c0.1,0.1,0.2,0.2,0.3,0.3c0,0-0.1,0-0.1,0c-0.3,0.2-0.4,0.5-0.3,0.8c-0.3-0.1-0.6,0-0.7,0.3
		c-0.3,0.2-0.1,0.7,0.2,0.8c0.3,0.2,0.9,0,0.8-0.5c0,0.1,0.1,0.1,0.1,0.1c0.2,0.1,0.4,0.2,0.6,0.3c0.1,0.5,0.3,1,0.7,1.2
		c0.2,0.1,0.3,0.1,0.4,0c0.1,0.1,0.1,0.2,0.2,0.3c0.2,0.3,0.5,0.3,0.7,0.1c0.2,0.5,1.1,0.3,0.9-0.3c0-0.1,0-0.1,0-0.2
		c-0.1-0.4-0.5-0.4-0.8-0.3c0-0.3-0.1-0.6-0.1-0.9c0.1,0,0.1-0.1,0.2-0.1c0.5,0.5,0.9,1,1.3,1.6C134.6,66,135.3,65.3,134.9,64.8z"/>
</g>
</svg>
